<?xml version="1.0" encoding="UTF-8" standalone="no"?>
<!DOCTYPE svg PUBLIC "-//W3C//DTD SVG 1.1//EN" "http://www.w3.org/Graphics/SVG/1.1/DTD/svg11.dtd">
<svg version="1.1" xmlns="http://www.w3.org/2000/svg" xmlns:xlink="http://www.w3.org/1999/xlink" preserveAspectRatio="xMidYMid meet" viewBox="0 0 1920 1920" width="1920" height="1920"><defs><path d="M646.71 624.07C609.97 595.11 571.75 568.36 533.89 541.18C496.03 514 458.07 486.9 421.97 457.06C398.53 437.7 370.98 415.88 355.08 388.23C321.22 329.29 428 338.04 455.66 336.75C526.02 333.46 606.73 334.96 672.69 304.27C712.06 285.95 727.76 255.22 719.3 210.44C716.58 195.87 708.51 179.11 715.34 164.92C722.64 149.77 739.43 141.03 753.37 135.16C804.2 113.8 862.64 111.32 916.41 108.64C974.4 105.69 1032.94 106.56 1090.52 106.33C1114.94 106.23 1140.43 96.75 1163.69 89.04C1194.17 78.94 1224.29 67.6 1254.51 56.63C1321.01 32.55 1389.54 7.2 1459.9 1.08C1503.96 -2.75 1552.12 2.43 1586.34 35.75C1603.53 52.48 1612.52 77.35 1622.46 99.45C1634.49 126.14 1646.04 153.09 1658.84 179.36C1700.09 263.97 1758.98 346.65 1854.56 350.8C1869.02 351.43 1883.22 349.39 1897.62 349C1906.78 348.77 1914.94 351.16 1918.34 361.53C1926.91 387.53 1899.99 428.57 1888.95 449.2C1864.78 494.35 1837.52 537.47 1811.99 581.72C1795.09 610.98 1765.85 650.97 1765.55 686.52C1765.27 718.2 1804.25 741.1 1825.47 756.7C1845.36 771.31 1881.38 791.75 1883.56 821.47C1884.62 835.88 1875.83 847.83 1866.65 857.09C1850.56 873.3 1832.03 884.73 1817.55 903.23C1793.82 933.56 1773.99 975.3 1777.21 1016.18C1779.45 1044.51 1794.4 1063.06 1813.42 1080.79C1821.41 1088.25 1827.9 1093.52 1828.32 1105.63C1829 1124.85 1822.04 1145.19 1816.3 1163.01C1795.78 1226.78 1766.62 1288.45 1734.19 1346.03C1717.99 1374.81 1700.48 1403.5 1679 1428.04C1664.93 1444.16 1645.95 1463.35 1624.48 1463.33C1599.63 1463.33 1573.34 1453.63 1549.18 1446.38C1504.06 1432.83 1459.49 1417.17 1415.09 1401.1C1312.42 1363.93 1210.72 1323.74 1109.98 1280.55C1039.02 1250.07 966.56 1219.55 899.85 1179.03C886.84 1171.07 874.56 1161.8 863.17 1151.32C851.01 1140.33 835.92 1135.4 820.61 1131.74C725.62 1108.96 621.55 1126.45 526.16 1137.41C501.95 1140.19 477.74 1142.98 453.46 1144.92C432.59 1146.59 407.6 1151.39 387.32 1144.19C347.34 1130 382.29 1077.74 397.06 1056.44C449.07 981.45 516.18 918 578.38 853.23C607.96 822.39 637.76 791.62 665.72 759.03C680.28 742.09 709 714.53 708.9 692.39C708.79 667.13 665.29 638.72 646.71 624.07Z" id="c1O4gXl9H"></path><path d="M659.7 623.05C626.28 596.28 591.82 571 557.87 544.99C525.78 520.4 493.61 495.52 463.89 467.59C445.76 450.56 423.02 430.19 414.44 405C395.81 350.4 496 358.68 520.73 357.25C582.22 353.72 651.93 352.91 708.81 324.16C744.33 306.21 758.93 276.44 751.35 235.1C748.73 220.8 744.01 208.59 749.99 194.37C756.89 177.9 772.78 167.64 787.35 160.39C832.97 137.69 886.9 132.86 936.36 128.85C987.46 124.71 1040.69 121.78 1090.14 124.82C1109.92 126.02 1132.68 119.17 1152.25 113.91C1182.36 105.81 1212.17 96.47 1242.13 87.78C1303.03 70.1 1365.5 53.08 1428.85 51.14C1474.59 49.74 1522.27 57.33 1560.32 86.64C1598.88 116.37 1615.99 162.45 1637.38 206.26C1674.31 282 1724.19 374.08 1809.63 390.08C1822.59 392.51 1835.04 391.19 1847.98 391.79C1854.64 392.09 1862.21 393.05 1865.59 400.14C1874.35 418.55 1850.34 452.21 1842.26 466.31C1819.93 505.28 1794.83 542.34 1771.44 580.56C1752.86 610.91 1729.3 644.62 1722.12 680.6C1713.39 724.25 1770.38 755.31 1790.42 786.05C1825.16 839.34 1759.34 869.71 1726.89 895.13C1689.62 924.3 1658.86 977.53 1692.27 1022.67C1705.05 1039.93 1720.77 1050.21 1726.48 1072.74C1735.41 1107.97 1728.65 1148.23 1721.41 1183.05C1710.5 1235.4 1693.24 1287.18 1669.77 1334.49C1652.95 1368.37 1625.05 1421.48 1584.2 1417.5C1556.7 1414.84 1528.74 1405.13 1501.96 1396.54C1461.87 1383.69 1422.28 1369.04 1382.9 1353.83C1291.99 1318.81 1202.09 1280.19 1113.96 1237.72C1053.82 1208.73 886.07 1090.25 873.45 1086.02C835.82 1073.43 793.03 1075.65 754.23 1077.6C702.61 1080.19 651.26 1086.91 599.95 1093.13C575.52 1096.08 550.97 1099.68 526.42 1101.13C508.94 1102.16 485.99 1103.04 470.68 1092.06C440.8 1070.64 474.09 1021.63 487.86 1000.89C530.03 937.32 583.38 882.27 633.41 825.98C657.96 798.34 682.88 770.75 705.16 740.9C714.15 728.84 736.68 704.64 726.83 688.13C710.89 661.4 682.91 641.64 659.7 623.05Z" id="i57WG1mkW"></path><path d="M593.39 536.47C567.36 514.04 541.16 491 518.71 464.29C507.03 450.4 492.45 432.83 490.2 413.46C484.18 361.66 574.48 368.67 601.51 366.7C653.76 362.88 712.79 359.99 760.2 333.55C789.16 317.39 803.42 290.87 798.01 256C795.61 240.54 791.87 227.4 798.01 212.21C804.23 196.82 817.18 185.96 830.3 177.82C868 154.42 914.84 146.93 957.28 141.36C1007.07 134.86 1057.24 132.33 1107.37 133.77C1151.28 135.01 1194.97 121.01 1237.84 111.78C1294.64 99.56 1352.46 88.89 1410.58 90.5C1456.48 91.78 1502.74 101.85 1541.97 128.61C1581.85 155.87 1605.82 196.66 1627.43 240.68C1660.1 307.22 1700.82 396.39 1772.5 421.66C1782.92 425.35 1792.64 425.75 1803.39 426.39C1808.61 426.7 1815.36 426.8 1817.95 432.68C1824.18 446.85 1801.14 474.33 1794.71 483.9C1774.19 514.47 1751.94 543.66 1730.91 573.83C1711.27 601.99 1689.88 631.33 1677.69 664.33C1658.28 716.88 1720.33 747.61 1718.59 797.7C1717.51 828.79 1689.96 851.08 1668.14 866.51C1641.28 885.47 1602.6 897.94 1589.15 932.56C1579.14 958.34 1594.85 973.34 1606.96 992.9C1627.47 1026.05 1628.86 1070.98 1626.73 1109.35C1623.85 1161.2 1612.61 1213.81 1593.47 1261.47C1584.8 1283.07 1574.18 1305.55 1558.54 1322.33C1543.88 1338.05 1530.02 1342.08 1510.43 1338.86C1450.49 1328.99 1389.97 1301.48 1332.48 1276.91C1260.26 1246.03 1189.03 1211.94 1119.93 1173.59C1072.81 1147.43 1024.63 1119.76 983.27 1083.62C972.49 1074.2 961.46 1063.96 953.57 1051.54C947.62 1042.2 945.09 1034.48 935.04 1029.15C905.28 1013.35 863.87 1017.48 831.98 1019.13C780.98 1021.74 730.22 1028.7 679.54 1034.97C649.96 1038.65 594.25 1050.24 570.63 1022.45C550.24 998.45 574.84 957.53 587.41 936.39C619.19 882.93 660.08 836.01 698.02 787.7C715.4 765.56 733.47 743.25 747.83 718.63C751.5 712.35 757.37 704.04 758.38 696.42C759.51 687.68 754.23 681.01 748.88 674.42C705.35 620.93 645.25 581.15 593.39 536.47Z" id="aabT1NHOSD"></path><path d="M620.73 556.46C601.37 536.62 581.81 515.8 567.06 491.59C559.12 478.58 550.69 462.19 552.88 446.01C559.16 399.57 633.42 403.76 663.43 401.04C708.01 397.05 759.23 393.02 798.65 367.98C824.47 351.58 834.16 327.36 829.33 296.12C824.16 262.61 835.73 238.28 862.07 219.59C895.08 196.17 936.76 186.62 975.1 179.84C1021.29 171.71 1068.06 168.1 1114.85 169.07C1160.35 170.01 1204.44 161.77 1249.64 156.41C1309.57 149.31 1371.43 145.81 1430.68 160.36C1482.28 173.03 1528.88 200.96 1563.81 244.14C1600.3 289.21 1618.36 345.99 1647.99 395.85C1666.47 426.95 1692.24 468.09 1726.77 480.18C1738.29 484.22 1759.28 478.78 1750.08 498.61C1744.82 509.96 1734.98 519.91 1727.21 529.18C1714.65 544.17 1701.67 558.74 1688.9 573.52C1661.68 605.03 1632.53 637.2 1612.12 674.51C1586.42 721.48 1624.63 757.63 1619.97 805.26C1617.47 830.89 1600.98 851.35 1583.54 867.42C1572.25 877.82 1559.9 886.84 1547.3 895.25C1534.13 904.04 1518.55 910.73 1507.06 922.09C1490.7 938.26 1497.8 957.39 1500.87 978.29C1506.27 1015.02 1507.46 1052.32 1504.4 1089.36C1500.67 1134.77 1491.9 1181.46 1473.45 1222.72C1466.26 1238.78 1457.17 1255.81 1443.66 1266.58C1430.15 1277.35 1416.18 1276.62 1400.7 1273.37C1354.79 1263.79 1308.97 1241.49 1265.42 1220.36C1210.91 1193.9 1157.47 1164.33 1106.43 1130.7C1071.21 1107.48 1035.86 1082.39 1006.39 1050.91C997.82 1041.74 989.66 1031.93 983.07 1020.98C978.54 1013.47 976.11 1003.77 969.55 998.13C949.03 980.5 907.82 985.77 883.75 986.79C835.71 988.83 788.43 998.54 740.45 1000.9C714.26 1002.19 673.25 1005.43 654.02 981.34C635.94 958.68 652.32 923 663.13 901.18C684.37 858.26 712.91 820.02 738.49 780.13C749 763.71 760.52 746.54 767.34 727.79C773.39 711.09 762.94 699 752.63 686.87C712.4 639.58 663.93 600.72 620.73 556.46Z" id="a1AY16F5QS"></path><path d="M659.64 566.79C640.76 542.02 608.24 500.38 622.85 465.46C638.86 427.08 694.7 426.04 726.98 422.95C765.39 419.27 810.5 414.24 843.38 390.28C853.78 382.71 862.63 372.68 866.39 359.47C870.41 345.34 866.01 332.97 865.44 318.83C864.24 289.15 880.64 265.32 902.33 248.96C932.99 225.82 971.33 214.88 1007.54 207.26C1048.57 198.66 1090.28 194.42 1132.07 194.6C1172.02 194.74 1211.53 193.79 1251.52 192.68C1303.8 191.21 1356.83 193.59 1407.55 208.6C1457.51 223.39 1502.93 251.12 1538.62 291.91C1573.43 331.71 1596.91 380.36 1617.48 429.91C1629.16 458.04 1648.87 500.07 1676.71 514.27C1689.09 520.6 1701.24 520.16 1688.08 536.61C1671.5 557.31 1649.16 573.93 1629.96 591.64C1602.26 617.2 1573.87 643.25 1550.62 673.64C1535.78 693.04 1529.16 711.87 1530.18 736.99C1530.97 756.13 1534.56 775.07 1532.74 794.28C1528.5 839.38 1495.64 870.3 1466.58 899.1C1447.9 917.62 1430.83 931.74 1421.21 958.09C1409.83 989.22 1405.05 1023.1 1397.45 1055.43C1389.09 1090.93 1379.45 1127.86 1361.21 1159.13C1344.98 1186.97 1325.24 1199.45 1295.7 1191.95C1249.62 1180.26 1204.2 1151.47 1163.29 1124.83C1121.66 1097.72 1080.73 1067.25 1046.23 1030C1027.6 1009.88 1014.89 986.26 998.35 964.65C977.54 937.51 930.46 947.79 902.49 950.09C856.05 953.9 709.92 982.43 723.4 890.02C729.03 851.45 751.19 815.85 767.4 781.82C774.12 767.69 783.84 750.74 785.36 734.55C787.02 716.92 772.15 700.17 762.52 687.65C730.5 646.03 691.89 609.08 659.64 566.79Z" id="h1Gw1CYRYV"></path><path d="M704.67 577.1C691.05 550.72 677.68 515.47 695.25 487.56C715.08 456.06 758.81 448.72 790.95 444.7C824.06 440.57 863.58 437.1 890.64 413.21C899.25 405.6 906.35 395.34 907.67 383.06C908.94 371.28 905.34 359.49 906.54 347.5C909.21 320.56 924.32 298.36 943.81 282.26C1001.45 234.63 1087.24 224.04 1156.78 222.8C1191.6 222.18 1227.42 225.42 1262.46 227.75C1307.92 230.77 1353.45 237.25 1396.81 252.87C1489 286.07 1550.78 359.71 1593.94 451.33C1607.52 480.17 1617.91 511.38 1639.2 534.55C1650.17 546.52 1647.77 555.12 1636.55 566.03C1619.02 583.09 1597.62 596.12 1578.16 610.36C1550.47 630.61 1522.19 651.15 1497.71 675.41C1480.83 692.12 1468.85 708.23 1465.21 733.3C1462.62 751.17 1463.22 769.39 1461.66 787.37C1458.69 821.54 1448.52 855.44 1430.52 883.78C1416.22 906.25 1399.19 926.66 1381.59 946.13C1358.72 971.47 1339.37 997.22 1321.99 1027.29C1298.96 1067.11 1266.59 1140.55 1212.33 1121.11C1152.49 1099.67 1096.41 1045.18 1058.01 992.38C1045.12 974.65 1034.53 952.91 1017.15 939.84C991.12 920.3 964.7 920.98 933.74 921.06C887.38 921.18 786.51 932.05 785.42 856.99C785 827.25 796.9 799.13 802.6 770.53C809.03 738.49 796.15 716.88 779.43 691.18C754.96 653.47 725.67 617.83 704.67 577.1Z" id="d5Cy8FWE"></path><path d="M760.46 509.96C782.26 481.07 820.83 470.21 853.19 463.75C879.23 458.51 910.63 456.55 930.31 434.37C944.77 418.06 938.35 394.32 943.89 373.91C950.76 348.6 966.55 327.89 985.94 312.32C1040.14 268.82 1115.5 255.47 1180.69 252.63C1248.4 249.68 1323.01 263.45 1386.73 289.94C1466.17 322.98 1525.69 385.53 1567.32 464.75C1575 479.38 1581.98 494.38 1589.35 509.18C1594.3 519.11 1601.65 528.72 1605.56 539.16C1612.06 556.57 1604.4 570.81 1592.12 582.15C1574.45 598.49 1552.76 610.12 1532.62 622.38C1505.08 639.16 1476.93 655.64 1451.31 675.33C1434.1 688.57 1416.08 702.85 1409.92 725.83C1405.71 741.51 1404.84 758.11 1404.99 774.34C1405.32 809.15 1403.63 837.31 1388.6 869.19C1363.86 921.53 1325.82 968.59 1285.63 1007.75C1254.09 1038.49 1204.19 1086.23 1158.24 1065.68C1117.01 1047.28 1092.89 1003.24 1065.73 967.64C1052.52 950.33 1037.69 934.52 1020.25 922.21C998.28 906.68 977.59 900.17 951.55 897.63C907.72 893.36 841.64 892.24 828.09 835.43C823.09 814.46 825.95 792.74 823.32 771.5C819.89 743.42 809.87 719.34 797.66 694.54C773.45 645.39 719.17 564.62 760.46 509.96Z" id="d3NP3RGSTo"></path><path d="M824.58 526.99C844.74 503.84 873.11 490.89 900.56 481.22C920.22 474.28 951.44 472.24 963.49 450.93C972.35 435.24 973.57 413.6 981.58 396.8C992.59 373.69 1009.26 354.66 1028.82 339.76C1079.77 300.94 1146.14 285.94 1206.66 281.64C1338.17 272.32 1471.98 346.55 1542.35 468.68C1563.33 505.09 1590.41 543.84 1556.5 581.03C1519.48 621.6 1463.72 640.61 1419.53 669.44C1402.65 680.45 1381.13 693.68 1371.72 713.61C1366.05 725.59 1365.66 740.62 1365.4 753.81C1364.72 787.4 1362.14 817.61 1349.64 848.95C1330.34 897.39 1299.57 942.07 1264.69 978.68C1234.28 1010.59 1190.9 1048.1 1146.73 1025.09C1112.86 1007.41 1091.38 969.88 1065.07 942.21C1035.78 911.4 999.57 890.64 959.8 880.49C921.11 870.65 878.67 864.01 858.28 822.19C851.29 807.85 843.98 789.27 841.36 773.39C837.13 747.22 830.93 721.45 822.83 696.36C822.83 696.36 822.83 696.36 822.83 696.36C796.24 615.32 796.82 558.86 824.58 526.99Z" id="b1ENW2H5Xj"></path><path d="M879.08 542.99C896.37 523.02 918.23 508.84 940.33 495.98C956.6 486.52 973.39 478.55 985.53 463.04C996.79 448.68 1005.34 432.01 1016.2 417.28C1030.54 397.76 1047.68 380.86 1066.99 367.23C1115.38 333.13 1174.24 317.18 1230.56 311.65C1257.82 308.96 1287.4 307.56 1314.47 314.89C1340.63 321.96 1366.48 333.14 1390.53 346.18C1441.65 373.87 1485.95 414.42 1518.06 465.69C1540.08 500.86 1551.99 535.05 1523.47 570.73C1491.33 610.94 1440.92 633.13 1399.37 659.23C1370.87 677.13 1338.94 694.67 1333.61 732.71C1329.37 762.98 1325.93 791.71 1314.97 820.32C1298.64 862.52 1274.65 900.75 1244.4 932.74C1216.73 961.88 1181.73 986.6 1142.16 971.04C1110.81 958.69 1086.49 931.01 1059.09 911.23C1028.57 889.13 995.03 876.94 959.71 867.15C927.97 858.31 898.08 844.72 877.57 815.88C873.37 809.99 868.96 803.58 865.72 796.98C861.59 788.57 861.91 780.23 861.1 770.8C858.99 745.92 854.5 721.32 850.89 696.74C842.92 642.43 842.03 585.8 879.08 542.99Z" id="cOvrM0ePM"></path><path d="M925.44 551.76C938.88 534.56 954.93 520.39 969.72 504.63C981.63 491.93 992.88 480.12 1006.57 469.65C1039.05 444.86 1065.45 412.78 1099.97 390.71C1146.05 361.2 1198.83 344.88 1251.21 338.36C1276.78 335.17 1303.2 334.06 1329.07 337.66C1351.29 340.75 1372.58 351.6 1392.32 362.71C1431.01 384.46 1468.58 415.37 1493.71 454.48C1549.1 540.71 1439.89 603.4 1383.84 640.12C1358.06 657.01 1318.67 676.57 1308.11 710.02C1300.56 733.92 1295.96 758.22 1286.24 781.38C1260.13 843.58 1207.12 916.73 1136.48 906.99C1106.26 902.83 1078.71 885.93 1050.49 874.58C1021.44 862.89 991.45 856.38 961.25 849.23C933.03 842.55 910.53 833.05 892.3 807.57C883.59 795.41 884.36 780.84 883.58 765.91C882.31 741.4 881.53 716.74 881.84 692.3C882.52 640.72 894 591.96 925.44 551.76Z" id="c9jR29ncG"></path><path d="M1025.48 477.6C1098.38 424.4 1177.36 379.61 1264.46 366.73C1304.84 360.76 1349.07 357.82 1387.17 377.35C1416.17 392.2 1449.86 414.4 1465.81 445.62C1504.86 521.97 1418.01 582.76 1368.53 618.08C1341.9 637.1 1307.99 655.63 1287.91 683.41C1276.26 699.51 1270.31 720.81 1260.91 738.49C1232.41 792.09 1185.49 835.31 1127.05 843.04C1100.03 846.61 1072.81 842.2 1046 838.68C1018.55 835.09 990.76 833.14 963.48 828.13C941.7 824.12 916.04 817.34 908.02 792.15C897.9 760.41 905.38 717.49 910.01 685.7C921.36 607.83 963.51 522.82 1025.48 477.6Z" id="a4Ie1YrnZX"></path><path d="M1048.16 484.86C1079.41 461.69 1115.68 445.69 1150.5 429.89C1189.97 411.97 1231.21 398.07 1273.33 391.17C1325.78 382.58 1410.72 374.83 1438.12 439.42C1465.31 503.53 1396.59 560.27 1355.95 592.6C1329.89 613.32 1302.01 632.33 1277.12 654.97C1263.62 667.25 1253.22 681.43 1241.79 695.83C1210.22 735.73 1165.21 767.31 1119.34 784.17C1074.87 800.51 1019.87 807.75 972.93 802.35C952.68 800.02 938.21 792.19 932.08 769.92C923.59 738.97 930.8 703.43 937.65 673.19C954.2 599.98 989.24 528.57 1048.16 484.86Z" id="a1BqX7DEAj"></path><path d="M1068.74 491.45C1126.72 448.09 1201.39 423.99 1270.02 411.73C1306.49 405.22 1385.54 387.58 1404.14 438.08C1422.73 488.59 1368.98 538.37 1338.04 565.77C1300.5 598.97 1260.01 631.03 1219.58 660.82C1184.45 686.73 1146.96 713.21 1108.91 733.21C1087.45 744.56 1065.1 753.82 1042.11 760.9C1025.09 766.09 1003.45 773.84 985.6 769.97C940.59 760.21 957.24 684.29 965.1 653.47C981.54 589.01 1017.01 530.14 1068.74 491.45Z" id="b3J5hCxGGc"></path><path d="M1259.42 431.42C1284.99 426.57 1356.68 409.09 1370.97 446.32C1384.82 482.43 1340.77 525.24 1320.15 545.53C1256.24 608.38 1177.28 654.99 1102.46 701.16C1079.11 715.57 1036.99 746.85 1008.02 732.42C976.56 716.73 991.52 659.44 998.99 634.17C1035.07 512.27 1149.37 452.32 1259.42 431.42Z" id="e1hCVascFx"></path><path d="M1242.47 452.48C1263.01 448.33 1315.2 435.4 1330.77 460.45C1345.17 483.62 1310.8 517.2 1297.94 530.54C1269.31 560.25 1235.38 584.73 1201.87 608.25C1170.88 630.02 1139.55 652.33 1106.94 670.74C1089.77 680.43 1057.55 701.11 1038.03 686.14C1017.02 670.05 1028.98 630.64 1035.94 610.71C1067.32 520.94 1158.57 469.45 1242.47 452.48Z" id="b1H3MvEzti"></path><path d="M1221.11 475.14C1236.31 471.74 1269.17 462.93 1281.99 478.59C1293.8 493.01 1274.77 514.14 1266.33 523.91C1228.9 567.17 1174.1 605.82 1123.88 629.56C1111.26 635.53 1088.56 647.24 1075.57 635.2C1062.25 622.83 1071.17 597.94 1076.67 584.48C1100.58 525.86 1164.62 487.79 1221.11 475.14Z" id="e1P2gxAzYh"></path><path d="M1197.73 501.79C1218.26 496.88 1242.93 501.12 1225.04 526.46C1207.27 551.61 1174.29 574.57 1146.33 584.75C1125.01 592.52 1108.29 584.86 1119.86 559.85C1133.34 530.75 1168.55 508.78 1197.73 501.79Z" id="g29OMBrVtk"></path><path d="M12.03 585.59C23.5 537.47 81.22 533.45 115.85 511.64C143.37 494.32 158.98 463.63 173.87 434.19C187.24 407.76 199.25 380.53 213.33 354.53C222.45 337.72 238.11 304.72 257.88 304.12C276.81 303.55 294.17 329.27 305.17 344.47C319.51 364.29 332.22 385.42 346.14 405.55C369.6 439.51 397.75 464.65 429.99 488.44C466.67 515.51 503.95 541.66 541.85 566.88C569.75 585.5 597.84 603.99 624.65 624.45C641.47 637.3 678.6 661.39 678.77 685.06C678.85 696.36 668.95 708.87 662.28 717.9C650.98 733.18 638.11 747.16 625.19 760.83C601.14 786.3 576.06 810.61 551.26 835.22C519.07 867.16 488.31 898.57 460.01 934.83C430.75 972.36 402.8 1011.12 374.28 1049.36C354.96 1075.26 335.66 1104.35 307.79 1120.25C272.89 1140.12 244.25 1119.17 208.95 1118.92C178.59 1118.71 180.83 1042.65 176.97 1021.5C173.1 1000.09 164.56 980.17 161.26 958.71C157.13 931.92 157.08 904.52 156.06 877.44C154.83 844.33 154.34 812.8 121.61 800.18C102.97 793 82.82 791.49 63.53 787.2C51.04 784.41 27.48 779.64 27.2 761.47C26.34 703.96 -1.93 644.19 12.03 585.59Z" id="e1OTeZCglR"></path><path d="M37.93 591.57C53.12 549.04 100.62 543.53 132.61 521.19C159.02 502.77 170.78 472.62 183.98 443C194.57 419.24 204.84 395.25 216.86 372.24C225.72 355.29 239.25 326.68 257.67 323.17C274.23 320.01 291.99 345.28 301.28 358.13C314.85 376.89 326.44 397.27 338.43 417.22C359.48 452.27 381.03 483.78 411.84 509.52C442.79 535.38 476.65 554.71 510.86 574.83C537.63 590.57 564.27 606.77 589.7 624.95C608.65 638.48 635.88 655.8 644.55 679.93C651.42 699.01 616.61 730.69 606.35 741.87C585.22 764.86 562.84 786.44 540.41 807.88C513.07 834.02 484.85 856.87 460.71 886.68C417.52 939.98 381.42 1006.36 325.85 1045.97C292.34 1069.86 255.04 1075.97 217.76 1072.4C203 1070.98 199.45 1048.45 197.59 1035.31C194.5 1013.48 194.11 991.28 191.73 969.36C189.5 948.84 184.56 929.35 180.57 909.23C176.54 888.84 175.4 867.96 172.43 847.43C170.59 834.69 168.77 819.86 160.73 809.62C152.4 799.01 138.66 794.57 126.65 791.19C104.1 784.91 44.38 785.26 42.13 751.24C38.95 703.03 20.15 641.33 37.93 591.57Z" id="b1cN1KvRu5"></path><path d="M70.3 590.92C88.13 557.59 126.14 550.4 153.29 528.68C175.87 510.62 184.4 481.89 195.61 455.19C204.81 433.29 214.05 411.3 225.2 390.46C233.66 374.66 244.55 353.24 261.34 347.72C275.69 343.01 291.91 364.11 299.86 374.62C313.41 392.52 324.46 412.58 335.43 432.37C353.37 464.75 369.89 499.35 395.43 525.69C420.25 551.25 449.73 566.34 479.76 583.31C502.77 596.3 525.63 609.8 547.31 625.3C563.95 637.2 584.58 651.29 593.25 671.09C600.75 688.15 581.49 708.36 571.87 720.4C555.99 740.27 538.36 758.5 520.97 776.81C502.2 796.56 481.42 814.77 463.26 835.01C425.08 877.59 394.58 924.73 347.52 957.35C317.04 978.48 276.03 997.68 240 994.23C214.09 991.74 215.79 929.75 213.3 909.94C209.21 877.56 201.31 843.53 188.76 813.7C177.98 788.14 152.36 780.25 128.8 774.52C114.04 770.92 98.56 768.98 84.29 763.41C67.76 756.97 63.59 749.61 61.34 731.06C55.99 686.81 48.5 631.69 70.3 590.92Z" id="d1dZ4d85lZ"></path><path d="M97.44 596.3C115.53 567.96 147.74 560.49 170.64 538.16C188.52 520.74 195.55 492.34 205.16 469.3C216.91 441.13 233.38 389.1 263.02 378.5C290.6 368.64 319.44 431.6 329.42 450.37C345.23 480.08 358.45 512.67 377.61 540.1C394.12 563.73 416.24 576.78 439.71 590.82C469.64 608.74 515.09 629.99 531.09 664.92C543.02 690.95 504.23 729.65 490.98 747.68C477.13 766.52 466.7 788.85 452.4 807.03C429.84 835.71 393.28 858.8 363.1 876.42C333.76 893.56 295.65 912.53 262.36 911.4C240.48 910.66 236.32 874.14 231.65 856.29C224.97 830.93 216.07 808.2 196.97 790.95C177.53 773.39 154.62 765.11 130.53 757.87C118.16 754.18 104.06 751.3 92.99 743.84C80.77 735.73 80.49 724.7 79.26 710.32C76.08 672.9 76.79 628.66 97.44 596.3Z" id="cdyfeZNsp"></path><path d="M128.38 597.03C145.26 576.27 171.69 569.33 187.85 548.1C200.65 531.29 207.17 507.7 215.74 488.18C226.22 464.26 241.04 422.48 267.11 414.18C292.55 406.1 315.05 452.12 324.8 470.33C339.09 497.03 350.65 525.33 365.06 551.96C376.35 572.85 390.16 586.32 408.55 599.78C430.13 615.6 460.24 633.12 471.77 659.28C480.08 678.23 459.96 708.5 452.66 725.19C447.76 736.4 443.28 747.78 440.82 759.93C438.9 769.39 438.71 778.15 433.15 786.27C419.16 806.71 388.48 809.38 367.67 816.11C340.02 825.05 310.69 835.21 281.77 837.15C263.98 838.36 254.91 820.65 244.76 808.19C232.77 793.46 215.79 782.87 200.96 771.76C181.39 757.07 160.1 747.93 138.07 738.57C128.13 734.35 116.46 730.2 108.76 721.81C100.72 713.1 101.04 700.42 101.1 688.75C101.27 656.43 108.11 621.97 128.38 597.03Z" id="c3ttdaBvPY"></path><path d="M156.98 597.29C171.16 582.55 189.99 574.26 201.37 556.56C211.97 540.06 219.35 521.29 228.11 503.65C237.38 485 251.15 453.83 272.52 448.75C295.55 443.28 313.3 474.73 323.12 492.16C335.54 514.19 344.97 537.88 356.06 560.67C364.43 577.65 375.09 593.18 387.71 606.74C400.94 621.04 418.88 634.74 425.57 654.4C431.49 671.81 420.42 692.88 418.46 710.54C416.37 729.4 420.03 749.22 408.45 765.42C384.55 798.82 324.57 792.63 290.28 793.34C256.44 794.08 229.24 773.64 201.86 754.19C183.78 741.35 164.94 730.48 146.4 718.51C127.5 706.31 120.94 693.45 124.03 669.56C127.54 642.42 138.49 616.48 156.98 597.29Z" id="a3AHFLjs8A"></path><path d="M211.37 564.08C230.36 539.75 244.59 489.37 276.56 482.7C312.85 475.14 334.58 541.9 347.19 567.66C361.19 596.23 386.13 619.47 396.5 649.71C401.95 665.58 397.27 680.39 394.37 696.26C391.19 713.68 388.79 731.49 377.81 745.51C356.19 773.11 313.97 772.92 283.57 773.68C252.09 774.47 224.24 755.56 199.17 736.68C172.57 716.7 134.69 694.36 145.34 654.03C155.73 614.7 188.18 593.8 211.37 564.08Z" id="a6ewMjSlSf"></path><path d="M219.01 571.07C235.67 553.14 253.6 517.05 279 514.48C308.86 511.45 326.96 549.98 338.71 573.61C350.27 596.83 366.93 621.34 373.34 646.82C380.01 673.37 362.23 709.12 345.27 727.9C326.36 748.85 295.42 756.59 268.87 755.75C241.07 754.9 215.56 737.59 194.5 719.64C172 700.44 149.12 675.89 162.74 643.36C174.45 615.35 199.05 592.57 219.01 571.07Z" id="k3GceLxjXK"></path><path d="M227.33 577.49C241.12 563.91 261.47 540.83 281.37 540.26C303.27 539.64 321.82 559.02 330.52 578.88C339.1 598.46 348.14 623.02 349.43 644.51C352.22 691.31 295.44 743.73 252.8 739.47C212.37 735.42 156.59 684.52 178.89 638.09C190.07 614.79 209.45 595.07 227.33 577.49Z" id="a1WgrPeCK0"></path><path d="M281.41 560.84C321.24 559.67 331.23 607.84 326.04 642.75C320.77 678.37 274.86 729.94 238.25 722.97C202.52 716.17 175.53 671.53 193.82 635.52C209.25 605.16 246.72 561.87 281.41 560.84Z" id="ewg3HILjy"></path><path d="M279.59 572.47C314.23 571.34 313.58 612 305.72 637.32C297.56 663.6 261.58 708.48 231.25 701.4C201.76 694.48 197.07 654.98 209.59 630.61C222.65 605.19 250.52 573.43 279.59 572.47Z" id="aGSZayP0t"></path><path d="M274.03 585.88C299.11 585 294.23 617.26 287.75 632.83C280.05 651.35 254.24 683.54 232.58 678.33C211.26 673.19 216.21 642.63 223.32 627.68C231.94 609.54 253.52 586.62 274.03 585.88Z" id="fc13Ajhvf"></path><path d="M1225.43 1761.11C1138.97 1805.73 1051.24 1849.14 960.39 1882.38C911.69 1900.19 848.57 1925.88 796.31 1911.92C777.2 1906.82 759.78 1891.39 742.64 1881.36C719.02 1867.54 695.05 1854.4 671.12 1841.23C623.11 1814.83 574.96 1788.7 527.77 1760.61C505.06 1747.08 483.01 1730.04 459.36 1718.49C445.54 1711.74 429 1714.9 414.23 1715.33C380.02 1716.32 345.83 1718.21 311.64 1719.81C269.82 1721.77 227.9 1723.85 186.04 1723.08C167.15 1722.73 120.91 1726.35 110.51 1708.77C104.92 1699.3 118.1 1682.23 124.21 1674.33C135.43 1659.81 148.32 1646.73 161.05 1633.79C190.48 1603.84 221.73 1575.32 247.89 1541.87C261.33 1524.67 278.94 1503.66 270.17 1480.19C261.31 1456.48 245.97 1435.95 236.61 1412.32C225.83 1385.12 221.36 1356.83 216.28 1327.99C212.51 1306.68 203.73 1287.8 195.48 1268.15C186.37 1246.44 176.93 1224.54 170.6 1201.63C166.42 1186.51 159.67 1159.29 174.3 1149.71C195.09 1136.1 234.08 1147.12 257.77 1151.13C290.53 1156.67 323.04 1163.72 355.71 1169.8C379.42 1174.21 403.21 1179.06 427.32 1179.57C466.19 1180.4 505.18 1177.53 543.94 1174.85C615.71 1169.88 686.97 1163.16 758.99 1163.16C822.08 1163.16 967.88 1242.05 1002.01 1255.94C1070.13 1283.67 1140.06 1309.96 1204.53 1346.85C1221.97 1356.84 1248.81 1370.15 1257.98 1390.71C1263.64 1403.38 1261.04 1410.71 1274.39 1418.87C1292.61 1430.01 1315.95 1434.38 1336.11 1439.36C1368.58 1447.39 1401.31 1454.18 1433.93 1461.45C1499.92 1476.1 1565.45 1492.68 1631.16 1508.63C1651.02 1513.46 1675.06 1514.52 1693.99 1523.02C1706.2 1528.47 1704.93 1535.34 1695.49 1543.63C1678.91 1558.18 1655.68 1566.25 1636.1 1574.55C1607.42 1586.7 1578.26 1597.54 1549.09 1608.23C1519.92 1618.92 1490.6 1629.28 1461.42 1639.99C1442.14 1647.04 1420.16 1652.78 1402.84 1664.14C1347.34 1700.53 1284.6 1730.57 1225.43 1761.11Z" id="c1rZR8j4BW"></path><path d="M1170.47 1750C1090.07 1786.3 1007.85 1820.32 923.14 1843.01C873.4 1856.32 814.71 1871.02 763.89 1855.75C745.76 1850.31 732.21 1838.06 716.67 1827.25C698.96 1814.92 680.56 1803.62 662.16 1792.5C624.29 1769.6 586.02 1747.48 547.35 1726.15C526.87 1714.8 504.33 1699.61 481.19 1695.67C462.79 1692.54 441.89 1697.07 423.41 1698.39C390.14 1700.77 356.87 1703.21 323.57 1705.29C285.16 1707.69 246.64 1709.9 208.14 1709.52C186.68 1709.3 149.85 1712.84 134.67 1697.85C121.44 1684.77 169.63 1637.47 178.11 1628.49C204.58 1600.43 232.42 1573.71 257.06 1543.71C271.62 1526.02 289.35 1504.5 295.49 1481.05C300.71 1461.06 290.63 1438.29 284.68 1419.82C277.23 1396.68 271.22 1372.69 262.57 1350.03C254.86 1329.85 242.59 1311.87 231.82 1293.52C219.97 1273.34 207.97 1252.82 199.18 1230.8C193.79 1217.25 184.87 1194.56 195.58 1181.64C207.95 1166.75 246.1 1176.48 261.78 1178.61C293.58 1182.97 325.14 1189.46 356.73 1195.27C409.19 1204.91 459.21 1213.34 512.64 1211.32C582.21 1208.68 651.72 1202.48 721.28 1199.04C746.97 1197.76 773.06 1195.18 798.77 1196.57C813.51 1197.38 824.73 1202.24 833.3 1213.22C845.01 1228.2 871.97 1236.49 890.72 1245.09C919.96 1258.48 949.56 1270.94 979.08 1283.56C1043.9 1311.28 1109.95 1338 1171.42 1373.84C1190.87 1385.18 1213.13 1397.83 1227.52 1416.56C1235.54 1427 1233.52 1437.07 1238.42 1448.17C1244.9 1462.77 1266.23 1469.36 1278.98 1474.14C1303.58 1483.37 1329.2 1489.55 1354.61 1495.35C1412.12 1508.46 1469.76 1517.07 1528.2 1523.42C1541.9 1524.9 1595.83 1530 1567.5 1554.63C1536.21 1581.84 1491.02 1595.17 1454.18 1610.51C1420.99 1624.29 1387.77 1637.12 1357.17 1656.13C1298.46 1692.6 1233.29 1721.65 1170.47 1750Z" id="b3ubUPA9JV"></path><path d="M1100.29 1728.3C1028.17 1756.09 954.25 1780.86 878.61 1794.73C831.1 1803.44 778.71 1810.13 731.52 1795.66C699.29 1785.78 674.36 1759.08 646.05 1740.71C617.74 1722.33 588.29 1705.09 557.96 1690.71C539.13 1681.79 518.88 1672.81 497.94 1673.98C447 1676.84 396.13 1683.65 345.15 1686.95C311.42 1689.16 277.62 1690.98 243.79 1690.43C223.39 1690.11 195.36 1691.44 177.3 1679.84C157.33 1667.01 263.64 1557.47 273.68 1545.14C298.87 1514.23 329.38 1473.2 324.51 1429.24C319.85 1387.21 299.66 1355.83 276.82 1322.9C263.86 1304.17 222.3 1254.13 237.7 1229.76C246.5 1215.84 275.5 1220.66 289.28 1221.61C316.44 1223.48 343.44 1227.5 370.45 1230.99C409.84 1236.04 450.3 1243.85 489.86 1246.14C517.4 1247.73 545.11 1245.6 572.7 1245.56C612.26 1245.5 651.82 1245.82 691.38 1246.21C724.6 1246.53 758.1 1246.21 791.2 1249.65C811.78 1251.77 827.4 1256.53 842.16 1269.99C855 1281.69 874.38 1288.54 890.75 1295.99C917.79 1308.27 945.18 1319.66 972.49 1331.23C1029.66 1355.46 1087.48 1379.18 1142.19 1409.46C1167.17 1423.28 1209.17 1442.62 1215.03 1476.12C1217.14 1488.19 1218.7 1493.41 1229.61 1500.28C1245.1 1510.03 1263.65 1514.42 1281.03 1518.24C1321.55 1527.15 1363.24 1525.81 1403.69 1534.62C1420.16 1538.24 1441.67 1546.08 1422.86 1564.01C1400.92 1584.98 1368.98 1596.5 1342.69 1609.46C1329.57 1615.92 1316.05 1621.97 1303.58 1629.86C1294.01 1635.94 1285.82 1643.73 1276.03 1649.39C1220.85 1681.47 1159.72 1705.41 1100.29 1728.3Z" id="i1jutOeqO"></path><path d="M1010.8 1701.45C950.41 1720.4 888.56 1736.09 825.89 1742.77C782.62 1747.4 736.51 1748.76 694.51 1734.6C667.95 1725.65 649.95 1706.81 627.09 1691.01C592.6 1667.14 555.28 1648.22 513.84 1652.83C467.38 1657.98 420.77 1661.84 374.01 1664.42C345.8 1665.97 317.48 1667.14 289.24 1666.06C271.38 1665.38 248.38 1664.23 232.85 1655.49C212.06 1643.78 290.13 1554.69 299.86 1541.7C324 1509.5 341.69 1475.7 352.03 1435.8C360.46 1403.25 343.24 1377.65 325.47 1353.3C314.43 1338.17 278.73 1300.13 289.91 1280.49C296.04 1269.66 316.24 1270.22 327.09 1269.67C347.76 1268.62 368.53 1269.71 389.2 1270.19C419.73 1270.93 452.23 1265.86 482.5 1269.94C549.59 1278.97 616.5 1286.79 684.01 1292.98C721.22 1296.39 758.65 1299.49 795.53 1306.06C808.77 1308.42 822.44 1310.93 834.99 1316.27C843.06 1319.7 847.46 1325.54 854.27 1330.34C886.74 1353.16 929.12 1364.91 965.7 1379.54C1014.31 1398.99 1063.19 1418.13 1110.51 1441.11C1135.4 1453.19 1170.17 1467.08 1187.3 1491.74C1192.47 1499.2 1190.27 1505.16 1193.52 1512.32C1197.27 1520.58 1208.65 1523.05 1216 1525.35C1232.67 1530.58 1302.49 1538.49 1270.31 1569.18C1254.96 1583.79 1235.41 1593.17 1218.1 1604.66C1211.84 1608.82 1205.73 1613 1200.5 1618.61C1191.77 1628.03 1183.16 1633.4 1171.52 1639.37C1120.54 1665.43 1065.17 1684.37 1010.8 1701.45Z" id="l1fywDKIzZ"></path><path d="M731.84 1693.41C695.35 1691.55 656.09 1685.35 624.46 1664.14C605.81 1651.61 590.91 1637.46 568.5 1632.94C552.33 1629.67 534.91 1633.38 518.65 1634.72C495.08 1636.67 471.5 1638.41 447.91 1639.81C418.65 1641.53 389.3 1642.86 359.99 1642.15C339.05 1641.64 310.13 1642.22 291.93 1630.05C270.21 1615.55 325.5 1547.5 333.28 1535.38C352.14 1505.99 365.35 1477.52 370.13 1442.1C371.54 1431.79 376.27 1421.21 375.66 1410.81C375.02 1400.19 368.96 1390.73 363.37 1382.38C356.07 1371.43 330.71 1345.48 337.97 1332.13C341.98 1324.76 357.04 1323.83 364.85 1322.27C379.49 1319.32 394.35 1317.73 409.08 1315.39C434.08 1311.39 458.9 1298.38 483.99 1298.75C551.44 1299.73 619.88 1322.34 685.98 1334.76C725.28 1342.17 764.85 1348.89 803.67 1358.92C815.95 1362.1 828.61 1365.38 840.28 1370.77C848.43 1374.53 853.67 1381.23 861.21 1385.44C890.15 1401.6 923.44 1411.41 954.51 1422.29C994.86 1436.44 1035.34 1450.17 1075.4 1465.23C1100.52 1474.68 1132.81 1482.98 1154.45 1500.49C1170.25 1513.28 1159.45 1517.11 1151.11 1529.02C1146.85 1535.09 1147.84 1541.08 1145.99 1547.95C1143.35 1557.77 1135.88 1564.84 1128.88 1571.19C1119.22 1579.97 1106.36 1587.2 1098.46 1597.96C1095.68 1601.75 1095.81 1606.45 1093.56 1609.76C1087 1619.37 1069.62 1624.12 1060.16 1628.09C959.52 1670.25 841.57 1698.97 731.84 1693.41Z" id="a7CUDhWs"></path><path d="M694.24 1647.66C664.2 1645.22 633.98 1639.55 605.99 1627.1C593.26 1621.45 583.7 1615.15 569.75 1614.81C537.38 1614.03 504.91 1616.77 472.54 1617.42C449.38 1617.9 426.11 1618.07 403 1616.05C387.55 1614.71 366.66 1613.1 354 1602.86C335.61 1587.95 368.81 1537.24 375.57 1523.23C386.77 1500 397.88 1474.17 393.44 1447.29C392.07 1439.07 389.66 1431.81 389.35 1423.42C389.05 1416.22 389.89 1409.57 387.52 1402.68C384.6 1394.14 371.6 1380.89 376.07 1373.04C379.12 1367.67 388.15 1367.42 394.16 1365.7C403.9 1362.91 413.42 1359.26 422.61 1354.77C432.28 1350.02 440.51 1342.69 450.53 1338.76C466.8 1332.41 485.01 1331.81 502.11 1331.84C570.33 1331.96 639.42 1346.51 705.91 1361.72C740.54 1369.64 775.35 1378.08 809 1390.09C819.22 1393.74 830.8 1397.4 839.79 1404.14C845.39 1408.34 849.2 1413.59 855.56 1416.75C909.97 1443.69 972.87 1453.7 1030.63 1473.15C1045.67 1478.22 1128.99 1503.81 1085.42 1527.88C1058.96 1542.51 1031 1549.16 1006.85 1569.17C999.49 1575.26 994.58 1580.29 991.71 1589.58C989.82 1595.75 994.37 1592.62 988.01 1599.08C980.29 1606.84 962.67 1609.98 953.15 1613.07C871.47 1639.57 780.58 1654.67 694.24 1647.66Z" id="aIpDygddX"></path><path d="M574.17 1600.88C549.68 1596.05 524.2 1597.2 499.41 1595.97C475.32 1594.8 432.5 1597.25 415.01 1577.23C402.32 1562.72 416.09 1531.88 420.85 1515.64C426.91 1494.97 432.21 1473.6 422.25 1453.52C416.42 1441.76 408.43 1430.56 402.17 1418.91C399.18 1413.34 393.02 1404.81 395.59 1399.54C399.84 1390.85 419.71 1387.19 429.36 1383.08C460.19 1369.98 492.83 1366.63 525.79 1366.72C586.67 1366.9 647.86 1375.89 707.57 1388.1C735.05 1393.71 762.9 1399.7 789.4 1409.47C804.39 1414.99 815.45 1425.64 829.77 1431.96C875.87 1452.3 925.4 1463.18 972.3 1481.78C985.87 1487.17 1036.57 1505.11 1011.03 1526.26C986.3 1546.73 950.23 1544.3 924.52 1563.56C921.61 1565.77 918.01 1568.41 916.33 1571.97C915.33 1574.1 917.08 1578.16 916.33 1579.37C908.43 1592.56 880.36 1594.65 868.22 1597.39C772.59 1619.03 671.32 1620.06 574.17 1600.88Z" id="a4Mhus4l0I"></path><path d="M657.17 1592.63C629.9 1592.88 599.94 1594.76 573.26 1587.29C556.87 1582.69 541.04 1578.67 524.14 1575.78C505.96 1572.66 476.69 1570.39 465.62 1553.48C457.35 1540.85 463.02 1514.89 463.32 1499.53C463.64 1482.68 460.45 1470.19 449.44 1458.13C442.53 1450.54 410.79 1422.99 414.46 1415.04C417.95 1407.47 440.06 1406.31 449.62 1404.35C479.84 1398.11 510.46 1395.94 541.2 1396.28C588.81 1396.79 636.6 1402.04 683.46 1411.06C702.83 1414.81 722.86 1418.69 741.36 1426.17C753.83 1431.22 764.22 1440.17 776.6 1445.39C812.06 1460.36 849.55 1470.52 885.14 1485.76C896.55 1490.66 933.76 1503.71 924.84 1523.81C917.4 1540.6 892.11 1545.71 879.68 1556.96C858.54 1576.15 833.23 1579.1 806.26 1583.09C757.2 1590.37 707.06 1592.17 657.17 1592.63Z" id="ev2NgAPfR"></path><path d="M657.12 1580.47C631.64 1580.54 604.75 1580.91 579.74 1574.72C567.18 1571.61 556.26 1564.35 544.37 1559.16C532.13 1553.83 515.23 1547.88 509.94 1535.66C504.97 1524.18 506.83 1507.42 502.46 1493.57C498.58 1481.28 490.45 1473.69 481.69 1465.39C476.12 1460.08 447.48 1437.1 450.79 1432.03C454.34 1426.59 471.54 1427.04 480.49 1426.29C505.15 1424.18 529.9 1423.51 554.63 1424.28C588.38 1425.39 622.39 1428.52 655.55 1435.58C679.08 1440.59 696.82 1452.52 718.76 1461.26C747.18 1472.63 776.61 1481.61 804.76 1494.04C818.78 1500.23 839.54 1508.19 846.73 1524.18C849.49 1530.3 852.17 1545.88 849.09 1552.01C845.4 1559.37 831.65 1562.49 825.16 1564.38C808.91 1569.1 791.9 1571.4 775.36 1573.45C736.44 1578.26 696.61 1580.37 657.12 1580.47Z" id="abkaeVg8i"></path></defs><g><g><g><use xlink:href="#c1O4gXl9H" opacity="1" fill="#002077" fill-opacity="1"></use><g><use xlink:href="#c1O4gXl9H" opacity="1" fill-opacity="0" stroke="#5be7c3" stroke-width="5" stroke-opacity="1"></use></g></g><g><use xlink:href="#i57WG1mkW" opacity="1" fill="#002077" fill-opacity="1"></use><g><use xlink:href="#i57WG1mkW" opacity="1" fill-opacity="0" stroke="#5acef2" stroke-width="5" stroke-opacity="1"></use></g></g><g><use xlink:href="#aabT1NHOSD" opacity="1" fill="#002077" fill-opacity="1"></use><g><use xlink:href="#aabT1NHOSD" opacity="1" fill-opacity="0" stroke="#5be7c3" stroke-width="5" stroke-opacity="1"></use></g></g><g><use xlink:href="#a1AY16F5QS" opacity="1" fill="#002077" fill-opacity="1"></use><g><use xlink:href="#a1AY16F5QS" opacity="1" fill-opacity="0" stroke="#5acef2" stroke-width="5" stroke-opacity="1"></use></g></g><g><use xlink:href="#h1Gw1CYRYV" opacity="1" fill="#002077" fill-opacity="1"></use><g><use xlink:href="#h1Gw1CYRYV" opacity="1" fill-opacity="0" stroke="#ff8062" stroke-width="5" stroke-opacity="1"></use></g></g><g><use xlink:href="#d5Cy8FWE" opacity="1" fill="#002077" fill-opacity="1"></use><g><use xlink:href="#d5Cy8FWE" opacity="1" fill-opacity="0" stroke="#f1b170" stroke-width="5" stroke-opacity="1"></use></g></g><g><use xlink:href="#d3NP3RGSTo" opacity="1" fill="#002077" fill-opacity="1"></use><g><use xlink:href="#d3NP3RGSTo" opacity="1" fill-opacity="0" stroke="#5be7c3" stroke-width="5" stroke-opacity="1"></use></g></g><g><use xlink:href="#b1ENW2H5Xj" opacity="1" fill="#002077" fill-opacity="1"></use><g><use xlink:href="#b1ENW2H5Xj" opacity="1" fill-opacity="0" stroke="#ff8062" stroke-width="5" stroke-opacity="1"></use></g></g><g><use xlink:href="#cOvrM0ePM" opacity="1" fill="#002077" fill-opacity="1"></use><g><use xlink:href="#cOvrM0ePM" opacity="1" fill-opacity="0" stroke="#f1b170" stroke-width="5" stroke-opacity="1"></use></g></g><g><use xlink:href="#c9jR29ncG" opacity="1" fill="#002077" fill-opacity="1"></use><g><use xlink:href="#c9jR29ncG" opacity="1" fill-opacity="0" stroke="#5be7c3" stroke-width="5" stroke-opacity="1"></use></g></g><g><use xlink:href="#a4Ie1YrnZX" opacity="1" fill="#002077" fill-opacity="1"></use><g><use xlink:href="#a4Ie1YrnZX" opacity="1" fill-opacity="0" stroke="#5acef2" stroke-width="5" stroke-opacity="1"></use></g></g><g><use xlink:href="#a1BqX7DEAj" opacity="1" fill="#002077" fill-opacity="1"></use><g><use xlink:href="#a1BqX7DEAj" opacity="1" fill-opacity="0" stroke="#f1b170" stroke-width="5" stroke-opacity="1"></use></g></g><g><use xlink:href="#b3J5hCxGGc" opacity="1" fill="#002077" fill-opacity="1"></use><g><use xlink:href="#b3J5hCxGGc" opacity="1" fill-opacity="0" stroke="#ff8062" stroke-width="5" stroke-opacity="1"></use></g></g><g><use xlink:href="#e1hCVascFx" opacity="1" fill="#002077" fill-opacity="1"></use><g><use xlink:href="#e1hCVascFx" opacity="1" fill-opacity="0" stroke="#5acef2" stroke-width="5" stroke-opacity="1"></use></g></g><g><use xlink:href="#b1H3MvEzti" opacity="1" fill="#002077" fill-opacity="1"></use><g><use xlink:href="#b1H3MvEzti" opacity="1" fill-opacity="0" stroke="#5acef2" stroke-width="5" stroke-opacity="1"></use></g></g><g><use xlink:href="#e1P2gxAzYh" opacity="1" fill="#002077" fill-opacity="1"></use><g><use xlink:href="#e1P2gxAzYh" opacity="1" fill-opacity="0" stroke="#5be7c3" stroke-width="5" stroke-opacity="1"></use></g></g><g><use xlink:href="#g29OMBrVtk" opacity="1" fill="#002077" fill-opacity="1"></use><g><use xlink:href="#g29OMBrVtk" opacity="1" fill-opacity="0" stroke="#f1b170" stroke-width="5" stroke-opacity="1"></use></g></g><g><use xlink:href="#e1OTeZCglR" opacity="1" fill="#002077" fill-opacity="1"></use><g><use xlink:href="#e1OTeZCglR" opacity="1" fill-opacity="0" stroke="#ff8062" stroke-width="5" stroke-opacity="1"></use></g></g><g><use xlink:href="#b1cN1KvRu5" opacity="1" fill="#002077" fill-opacity="1"></use><g><use xlink:href="#b1cN1KvRu5" opacity="1" fill-opacity="0" stroke="#5be7c3" stroke-width="5" stroke-opacity="1"></use></g></g><g><use xlink:href="#d1dZ4d85lZ" opacity="1" fill="#002077" fill-opacity="1"></use><g><use xlink:href="#d1dZ4d85lZ" opacity="1" fill-opacity="0" stroke="#5acef2" stroke-width="5" stroke-opacity="1"></use></g></g><g><use xlink:href="#cdyfeZNsp" opacity="1" fill="#002077" fill-opacity="1"></use><g><use xlink:href="#cdyfeZNsp" opacity="1" fill-opacity="0" stroke="#f1b170" stroke-width="5" stroke-opacity="1"></use></g></g><g><use xlink:href="#c3ttdaBvPY" opacity="1" fill="#002077" fill-opacity="1"></use><g><use xlink:href="#c3ttdaBvPY" opacity="1" fill-opacity="0" stroke="#ff8062" stroke-width="5" stroke-opacity="1"></use></g></g><g><use xlink:href="#a3AHFLjs8A" opacity="1" fill="#002077" fill-opacity="1"></use><g><use xlink:href="#a3AHFLjs8A" opacity="1" fill-opacity="0" stroke="#5acef2" stroke-width="5" stroke-opacity="1"></use></g></g><g><use xlink:href="#a6ewMjSlSf" opacity="1" fill="#002077" fill-opacity="1"></use><g><use xlink:href="#a6ewMjSlSf" opacity="1" fill-opacity="0" stroke="#5acef2" stroke-width="5" stroke-opacity="1"></use></g></g><g><use xlink:href="#k3GceLxjXK" opacity="1" fill="#002077" fill-opacity="1"></use><g><use xlink:href="#k3GceLxjXK" opacity="1" fill-opacity="0" stroke="#ff8062" stroke-width="5" stroke-opacity="1"></use></g></g><g><use xlink:href="#a1WgrPeCK0" opacity="1" fill="#002077" fill-opacity="1"></use><g><use xlink:href="#a1WgrPeCK0" opacity="1" fill-opacity="0" stroke="#5acef2" stroke-width="5" stroke-opacity="1"></use></g></g><g><use xlink:href="#ewg3HILjy" opacity="1" fill="#002077" fill-opacity="1"></use><g><use xlink:href="#ewg3HILjy" opacity="1" fill-opacity="0" stroke="#5be7c3" stroke-width="5" stroke-opacity="1"></use></g></g><g><use xlink:href="#aGSZayP0t" opacity="1" fill="#002077" fill-opacity="1"></use><g><use xlink:href="#aGSZayP0t" opacity="1" fill-opacity="0" stroke="#ff8062" stroke-width="5" stroke-opacity="1"></use></g></g><g><use xlink:href="#fc13Ajhvf" opacity="1" fill="#002077" fill-opacity="1"></use><g><use xlink:href="#fc13Ajhvf" opacity="1" fill-opacity="0" stroke="#5acef2" stroke-width="5" stroke-opacity="1"></use></g></g><g><use xlink:href="#c1rZR8j4BW" opacity="1" fill="#002077" fill-opacity="1"></use><g><use xlink:href="#c1rZR8j4BW" opacity="1" fill-opacity="0" stroke="#ff8062" stroke-width="5" stroke-opacity="1"></use></g></g><g><use xlink:href="#b3ubUPA9JV" opacity="1" fill="#002077" fill-opacity="1"></use><g><use xlink:href="#b3ubUPA9JV" opacity="1" fill-opacity="0" stroke="#5be7c3" stroke-width="5" stroke-opacity="1"></use></g></g><g><use xlink:href="#i1jutOeqO" opacity="1" fill="#002077" fill-opacity="1"></use><g><use xlink:href="#i1jutOeqO" opacity="1" fill-opacity="0" stroke="#5acef2" stroke-width="5" stroke-opacity="1"></use></g></g><g><use xlink:href="#l1fywDKIzZ" opacity="1" fill="#002077" fill-opacity="1"></use><g><use xlink:href="#l1fywDKIzZ" opacity="1" fill-opacity="0" stroke="#f1b170" stroke-width="5" stroke-opacity="1"></use></g></g><g><use xlink:href="#a7CUDhWs" opacity="1" fill="#002077" fill-opacity="1"></use><g><use xlink:href="#a7CUDhWs" opacity="1" fill-opacity="0" stroke="#ff8062" stroke-width="5" stroke-opacity="1"></use></g></g><g><use xlink:href="#aIpDygddX" opacity="1" fill="#002077" fill-opacity="1"></use><g><use xlink:href="#aIpDygddX" opacity="1" fill-opacity="0" stroke="#f1b170" stroke-width="5" stroke-opacity="1"></use></g></g><g><use xlink:href="#a4Mhus4l0I" opacity="1" fill="#002077" fill-opacity="1"></use><g><use xlink:href="#a4Mhus4l0I" opacity="1" fill-opacity="0" stroke="#5acef2" stroke-width="5" stroke-opacity="1"></use></g></g><g><use xlink:href="#ev2NgAPfR" opacity="1" fill="#002077" fill-opacity="1"></use><g><use xlink:href="#ev2NgAPfR" opacity="1" fill-opacity="0" stroke="#5acef2" stroke-width="5" stroke-opacity="1"></use></g></g><g><use xlink:href="#abkaeVg8i" opacity="1" fill="#002077" fill-opacity="1"></use><g><use xlink:href="#abkaeVg8i" opacity="1" fill-opacity="0" stroke="#ff8062" stroke-width="5" stroke-opacity="1"></use></g></g></g></g></svg>