<?xml version="1.0" encoding="UTF-8" standalone="no"?>
<!DOCTYPE svg PUBLIC "-//W3C//DTD SVG 1.1//EN" "http://www.w3.org/Graphics/SVG/1.1/DTD/svg11.dtd">
<svg version="1.1" xmlns="http://www.w3.org/2000/svg" xmlns:xlink="http://www.w3.org/1999/xlink" preserveAspectRatio="xMidYMid meet" viewBox="0 0 1500 1500" width="1500" height="1500"><defs><path d="M500.99 488.6C472.17 465.92 442.18 444.97 412.48 423.7C382.77 402.42 352.99 381.2 324.66 357.84C306.27 342.68 284.66 325.6 272.19 303.95C245.62 257.81 329.4 264.66 351.1 263.65C406.3 261.07 469.63 262.25 521.38 238.22C552.27 223.87 564.58 199.82 557.95 164.75C555.81 153.35 549.48 140.23 554.84 129.12C560.57 117.26 573.74 110.41 584.68 105.82C624.56 89.09 670.41 87.16 712.6 85.06C758.1 82.75 804.02 83.42 849.2 83.24C868.36 83.17 888.36 75.75 906.61 69.71C930.52 61.81 954.15 52.92 977.87 44.34C1030.04 25.49 1083.81 5.63 1139.01 0.85C1173.58 -2.15 1211.36 1.9 1238.22 27.99C1251.7 41.09 1258.76 60.56 1266.55 77.86C1275.99 98.75 1285.05 119.85 1295.1 140.42C1327.46 206.66 1373.66 271.39 1448.66 274.65C1460 275.14 1471.15 273.54 1482.44 273.24C1489.63 273.06 1496.03 274.93 1498.7 283.05C1505.42 303.4 1484.3 335.53 1475.64 351.68C1456.67 387.03 1435.29 420.8 1415.25 455.44C1402 478.35 1379.06 509.65 1378.82 537.49C1378.6 562.29 1409.19 580.22 1425.83 592.43C1441.44 603.87 1469.7 619.88 1471.41 643.14C1472.24 654.42 1465.34 663.77 1458.14 671.03C1445.52 683.72 1430.98 692.67 1419.62 707.15C1401 730.9 1385.44 763.58 1387.97 795.58C1389.73 817.76 1401.46 832.28 1416.38 846.17C1422.65 852 1427.74 856.13 1428.07 865.61C1428.6 880.66 1423.14 896.58 1418.64 910.54C1402.54 960.47 1379.66 1008.75 1354.22 1053.83C1341.51 1076.36 1327.77 1098.82 1310.91 1118.04C1299.87 1130.66 1284.98 1145.68 1268.14 1145.66C1248.64 1145.66 1228.01 1138.07 1209.06 1132.39C1173.66 1121.79 1138.69 1109.52 1103.86 1096.94C1023.3 1067.84 943.51 1036.38 864.47 1002.56C808.8 978.7 751.94 954.8 699.6 923.08C689.4 916.85 679.76 909.59 670.83 901.39C661.29 892.78 649.44 888.92 637.44 886.05C562.91 868.22 481.26 881.91 406.42 890.49C387.42 892.67 368.42 894.85 349.38 896.38C333 897.69 313.39 901.44 297.48 895.8C266.12 884.7 293.53 843.77 305.12 827.1C345.93 768.39 398.58 718.72 447.39 668.01C470.59 643.86 493.97 619.77 515.91 594.26C527.34 580.99 549.87 559.42 549.79 542.08C549.71 522.3 515.57 500.06 500.99 488.6Z" id="aSrtra47p"></path><path d="M511.18 487.79C484.97 466.84 457.93 447.05 431.3 426.68C406.11 407.43 380.88 387.95 357.56 366.08C343.33 352.75 325.49 336.8 318.76 317.08C304.15 274.33 382.75 280.82 402.15 279.7C450.4 276.93 505.09 276.3 549.72 253.79C577.59 239.73 589.04 216.43 583.09 184.07C581.04 172.87 577.34 163.31 582.02 152.17C587.44 139.28 599.91 131.25 611.34 125.57C647.13 107.8 689.45 104.02 728.25 100.88C768.34 97.63 810.11 95.35 848.91 97.72C864.42 98.67 882.28 93.3 897.64 89.18C921.26 82.84 944.65 75.52 968.16 68.72C1015.93 54.88 1064.95 41.56 1114.65 40.04C1150.53 38.94 1187.95 44.88 1217.8 67.83C1248.06 91.11 1261.48 127.19 1278.26 161.48C1307.23 220.78 1346.37 292.87 1413.41 305.4C1423.57 307.3 1433.34 306.27 1443.49 306.74C1448.72 306.97 1454.66 307.72 1457.31 313.28C1464.18 327.69 1445.35 354.04 1439.01 365.08C1421.49 395.59 1401.8 424.61 1383.44 454.53C1368.86 478.29 1350.38 504.69 1344.74 532.85C1337.9 567.02 1382.61 591.34 1398.33 615.41C1425.59 657.14 1373.95 680.91 1348.49 700.81C1319.25 723.65 1295.12 765.32 1321.33 800.66C1331.35 814.17 1343.69 822.23 1348.17 839.86C1355.17 867.44 1349.87 898.96 1344.19 926.23C1335.63 967.21 1322.09 1007.75 1303.67 1044.79C1290.48 1071.31 1268.59 1112.9 1236.54 1109.78C1214.96 1107.7 1193.02 1100.09 1172.02 1093.37C1140.56 1083.31 1109.49 1071.84 1078.6 1059.93C1007.28 1032.51 936.74 1002.28 867.59 969.03C820.41 946.33 688.8 853.57 678.89 850.26C649.37 840.4 615.79 842.14 585.35 843.67C544.86 845.7 504.56 850.96 464.31 855.83C445.14 858.13 425.88 860.95 406.62 862.09C392.9 862.89 374.89 863.59 362.88 854.99C339.44 838.22 365.56 799.85 376.36 783.61C409.45 733.84 451.31 690.74 490.56 646.67C509.82 625.03 529.37 603.43 546.86 580.06C553.91 570.62 571.59 551.67 563.85 538.75C551.35 517.82 529.4 502.35 511.18 487.79Z" id="c2ZKURBu5H"></path><path d="M459.16 420.01C438.73 402.45 418.18 384.41 400.57 363.5C391.4 352.62 379.96 338.87 378.2 323.71C373.48 283.15 444.32 288.63 465.53 287.09C506.53 284.11 552.84 281.84 590.03 261.14C612.76 248.49 623.95 227.72 619.7 200.43C617.82 188.32 614.89 178.03 619.7 166.14C624.58 154.09 634.74 145.59 645.04 139.22C674.61 120.89 711.37 115.03 744.67 110.67C783.73 105.58 823.09 103.6 862.42 104.73C896.87 105.7 931.15 94.74 964.79 87.52C1009.35 77.95 1054.72 69.59 1100.31 70.86C1136.33 71.86 1172.62 79.74 1203.41 100.69C1234.69 122.03 1253.5 153.97 1270.45 188.43C1296.09 240.53 1328.03 310.34 1384.27 330.13C1392.45 333.01 1400.07 333.33 1408.51 333.83C1412.61 334.07 1417.9 334.14 1419.93 338.75C1424.82 349.85 1406.74 371.36 1401.7 378.85C1385.6 402.79 1368.14 425.64 1351.64 449.26C1336.23 471.3 1319.45 494.28 1309.88 520.11C1294.65 561.26 1343.34 585.32 1341.98 624.53C1341.13 648.87 1319.51 666.32 1302.4 678.4C1281.32 693.25 1250.97 703.01 1240.42 730.11C1232.57 750.3 1244.9 762.04 1254.39 777.36C1270.48 803.31 1271.58 838.49 1269.9 868.53C1267.65 909.12 1258.83 950.31 1243.81 987.62C1237.01 1004.54 1228.67 1022.13 1216.4 1035.27C1204.9 1047.58 1194.02 1050.74 1178.66 1048.21C1131.63 1040.49 1084.14 1018.95 1039.04 999.71C982.38 975.54 926.49 948.85 872.28 918.82C835.31 898.34 797.51 876.68 765.06 848.38C756.6 841.01 747.94 832.99 741.76 823.26C737.08 815.95 735.1 809.91 727.22 805.74C703.86 793.37 671.38 796.6 646.35 797.89C606.34 799.94 566.52 805.39 526.75 810.29C503.55 813.18 459.83 822.25 441.3 800.49C425.31 781.7 444.61 749.67 454.47 733.12C479.41 691.26 511.48 654.53 541.25 616.7C554.89 599.37 569.06 581.9 580.33 562.63C583.21 557.71 587.82 551.2 588.61 545.23C589.5 538.39 585.35 533.17 581.16 528.01C547 486.14 499.85 454.99 459.16 420.01Z" id="c10pJzT8on"></path><path d="M480.61 435.66C465.42 420.13 450.08 403.83 438.5 384.88C432.27 374.68 425.66 361.85 427.38 349.19C432.3 312.83 490.57 316.11 514.11 313.98C549.09 310.85 589.28 307.7 620.2 288.1C640.46 275.26 648.06 256.29 644.28 231.83C640.22 205.6 649.3 186.55 669.96 171.92C695.87 153.58 728.57 146.11 758.64 140.8C794.88 134.43 831.58 131.61 868.29 132.37C903.99 133.11 938.58 126.65 974.04 122.46C1021.07 116.9 1069.6 114.16 1116.09 125.55C1156.57 135.47 1193.13 157.33 1220.54 191.14C1249.17 226.43 1263.34 270.88 1286.59 309.92C1301.08 334.27 1321.3 366.48 1348.4 375.94C1357.43 379.1 1373.9 374.84 1366.68 390.37C1362.56 399.25 1354.84 407.04 1348.74 414.3C1338.88 426.04 1328.7 437.45 1318.68 449.02C1297.32 473.68 1274.45 498.88 1258.44 528.08C1238.27 564.86 1268.26 593.16 1264.6 630.45C1262.64 650.52 1249.7 666.53 1236.02 679.11C1227.16 687.26 1217.47 694.32 1207.58 700.9C1197.25 707.78 1185.03 713.02 1176.02 721.92C1163.18 734.57 1168.75 749.56 1171.16 765.92C1175.4 794.67 1176.33 823.88 1173.93 852.88C1171 888.42 1164.12 924.99 1149.64 957.29C1144.01 969.86 1136.87 983.19 1126.27 991.63C1115.67 1000.06 1104.71 999.48 1092.56 996.94C1056.54 989.44 1020.6 971.98 986.42 955.43C943.66 934.72 901.73 911.57 861.69 885.24C834.05 867.06 806.32 847.42 783.19 822.77C776.47 815.6 770.07 807.92 764.9 799.34C761.35 793.46 759.44 785.87 754.29 781.45C738.19 767.65 705.86 771.77 686.97 772.57C649.28 774.17 612.18 781.77 574.54 783.62C554 784.63 521.82 787.17 506.73 768.3C492.55 750.57 505.4 722.63 513.88 705.54C530.54 671.94 552.93 642.01 573 610.77C581.25 597.92 590.29 584.48 595.64 569.8C600.39 556.72 592.19 547.26 584.1 537.76C552.53 500.73 514.5 470.31 480.61 435.66Z" id="b1fpZMqWTO"></path><path d="M509.55 443.75C494.74 424.35 469.23 391.75 480.69 364.41C493.25 334.37 537.06 333.55 562.39 331.13C592.53 328.25 627.92 324.31 653.71 305.56C661.87 299.63 668.82 291.78 671.77 281.44C674.92 270.37 671.47 260.69 671.02 249.61C670.08 226.38 682.94 207.72 699.97 194.91C724.02 176.8 754.1 168.24 782.52 162.26C814.71 155.53 847.43 152.21 880.22 152.35C911.56 152.47 942.56 151.72 973.93 150.85C1014.96 149.7 1056.56 151.56 1096.35 163.31C1135.55 174.9 1171.19 196.61 1199.19 228.54C1226.5 259.7 1244.93 297.79 1261.07 336.58C1270.22 358.6 1285.69 391.51 1307.54 402.63C1317.25 407.58 1326.78 407.24 1316.45 420.12C1303.45 436.33 1285.92 449.34 1270.85 463.2C1249.12 483.21 1226.85 503.61 1208.61 527.4C1196.96 542.59 1191.77 557.33 1192.57 577C1193.19 591.99 1196 606.82 1194.58 621.86C1191.25 657.16 1165.47 681.37 1142.67 703.92C1128.01 718.42 1114.62 729.47 1107.07 750.1C1098.14 774.48 1094.39 801 1088.43 826.31C1081.87 854.1 1074.3 883.02 1060 907.5C1047.27 929.29 1031.78 939.07 1008.6 933.2C972.45 924.04 936.81 901.5 904.71 880.64C872.05 859.42 839.94 835.57 812.87 806.4C798.25 790.65 788.28 772.16 775.3 755.24C758.97 733.99 722.04 742.04 700.09 743.84C663.65 746.82 549 769.16 559.58 696.81C564 666.61 581.39 638.74 594.1 612.09C599.37 601.04 607 587.76 608.19 575.09C609.49 561.29 597.83 548.18 590.28 538.37C565.15 505.78 534.86 476.86 509.55 443.75Z" id="dnKPE4Cuj"></path><path d="M546.47 451.82C535.78 431.17 525.29 403.57 539.08 381.72C554.64 357.06 588.95 351.31 614.16 348.16C640.14 344.93 671.15 342.21 692.38 323.51C699.13 317.55 704.7 309.52 705.74 299.9C706.74 290.68 703.92 281.45 704.85 272.06C706.95 250.97 718.8 233.59 734.09 220.98C779.32 183.7 846.63 175.4 901.19 174.43C928.5 173.95 956.61 176.49 984.1 178.31C1019.77 180.67 1055.49 185.75 1089.51 197.98C1161.84 223.97 1210.32 281.62 1244.18 353.35C1254.83 375.93 1262.99 400.36 1279.69 418.51C1288.29 427.88 1286.41 434.61 1277.61 443.15C1263.85 456.51 1247.07 466.71 1231.8 477.86C1210.07 493.71 1187.89 509.8 1168.67 528.78C1155.43 541.87 1146.03 554.48 1143.18 574.11C1141.14 588.1 1141.62 602.36 1140.4 616.44C1138.07 643.19 1130.09 669.74 1115.96 691.93C1104.74 709.51 1091.38 725.5 1077.57 740.74C1059.62 760.58 1044.44 780.74 1030.81 804.28C1012.74 835.45 987.34 892.95 944.78 877.74C897.83 860.95 853.82 818.28 823.7 776.95C813.58 763.07 805.28 746.05 791.63 735.81C771.21 720.52 750.49 721.05 726.19 721.11C689.82 721.2 610.68 729.72 609.83 670.95C609.49 647.67 618.83 625.65 623.31 603.26C628.35 578.18 618.24 561.26 605.13 541.14C585.93 511.61 562.95 483.71 546.47 451.82Z" id="cfkGvjVkE"></path><path d="M590.24 399.25C607.35 376.64 637.61 368.14 663 363.07C683.43 358.98 708.06 357.44 723.5 340.07C734.85 327.3 729.81 308.72 734.16 292.74C739.55 272.92 751.93 256.71 767.15 244.52C809.67 210.46 868.8 200.01 919.95 197.79C973.07 195.48 1031.61 206.26 1081.6 227C1143.93 252.86 1190.63 301.84 1223.29 363.86C1229.32 375.31 1234.79 387.06 1240.58 398.65C1244.46 406.42 1250.23 413.94 1253.29 422.12C1258.39 435.75 1252.38 446.89 1242.75 455.78C1228.89 468.57 1211.86 477.67 1196.07 487.27C1174.46 500.41 1152.37 513.31 1132.27 528.72C1118.77 539.1 1104.63 550.27 1099.8 568.26C1096.5 580.54 1095.81 593.53 1095.93 606.24C1096.19 633.5 1094.86 655.54 1083.07 680.5C1063.66 721.48 1033.81 758.33 1002.28 788.99C977.54 813.05 938.39 850.42 902.33 834.34C869.98 819.93 851.06 785.45 829.75 757.58C819.39 744.02 807.75 731.65 794.07 722.01C776.83 709.86 760.6 704.76 740.17 702.77C705.78 699.42 653.93 698.55 643.3 654.07C639.38 637.65 641.62 620.65 639.56 604.02C636.87 582.03 629.01 563.18 619.43 543.77C600.43 505.28 557.85 442.05 590.24 399.25Z" id="arEDaHOu"></path><path d="M640.55 412.59C656.37 394.46 678.62 384.32 700.16 376.75C715.59 371.32 740.08 369.73 749.54 353.04C756.49 340.76 757.45 323.81 763.73 310.66C772.37 292.57 785.45 277.67 800.79 266C840.77 235.61 892.84 223.87 940.32 220.5C1043.5 213.21 1148.49 271.32 1203.7 366.94C1220.16 395.44 1241.41 425.78 1214.81 454.9C1185.76 486.66 1142.01 501.54 1107.34 524.12C1094.09 532.73 1077.21 543.09 1069.82 558.7C1065.38 568.08 1065.07 579.84 1064.87 590.17C1064.34 616.47 1062.31 640.12 1052.51 664.66C1037.36 702.58 1013.22 737.56 985.85 766.22C961.99 791.21 927.96 820.57 893.3 802.56C866.73 788.72 849.88 759.33 829.23 737.67C806.26 713.55 777.84 697.29 746.64 689.35C716.28 681.64 682.99 676.45 666.99 643.71C661.5 632.47 655.77 617.93 653.71 605.5C650.39 585.01 645.53 564.84 639.17 545.19C639.17 545.19 639.17 545.19 639.17 545.19C618.31 481.74 618.77 437.54 640.55 412.59Z" id="c3BNiMvvAF"></path><path d="M683.31 425.12C696.88 409.48 714.03 398.38 731.37 388.31C744.13 380.91 757.3 374.66 766.83 362.52C775.66 351.28 782.37 338.23 790.89 326.7C802.14 311.41 815.59 298.18 830.74 287.51C868.7 260.81 914.89 248.33 959.08 243.99C980.47 241.89 1003.67 240.79 1024.91 246.53C1045.43 252.07 1065.72 260.82 1084.58 271.03C1124.69 292.71 1159.45 324.46 1184.65 364.6C1201.92 392.13 1211.26 418.9 1188.89 446.83C1163.67 478.31 1124.12 495.68 1091.52 516.12C1069.16 530.13 1044.11 543.87 1039.93 573.65C1036.6 597.35 1033.9 619.84 1025.3 642.24C1012.49 675.28 993.67 705.21 969.93 730.25C948.23 753.07 920.77 772.43 889.72 760.24C865.12 750.57 846.04 728.9 824.55 713.41C800.6 696.11 774.28 686.57 746.57 678.9C721.67 671.98 698.22 661.35 682.12 638.77C678.83 634.15 675.37 629.13 672.83 623.97C669.59 617.38 669.84 610.85 669.2 603.47C667.55 583.99 664.02 564.73 661.19 545.49C654.94 502.97 654.24 458.63 683.31 425.12Z" id="c2n9NsyJ55"></path><path d="M719.68 431.98C730.23 418.51 742.82 407.42 754.42 395.08C763.76 385.14 772.59 375.9 783.34 367.7C808.82 348.29 829.53 323.17 856.62 305.89C892.77 282.79 934.18 270.01 975.27 264.91C995.34 262.41 1016.07 261.54 1036.37 264.36C1053.8 266.78 1070.5 275.28 1085.99 283.97C1116.35 301 1145.82 325.2 1165.54 355.82C1209 423.33 1123.31 472.41 1079.33 501.16C1059.11 514.38 1028.2 529.69 1019.92 555.88C1014 574.59 1010.39 593.62 1002.76 611.75C982.28 660.45 940.69 717.72 885.26 710.1C861.55 706.84 839.93 693.61 817.8 684.72C795 675.57 771.47 670.47 747.78 664.87C725.63 659.65 707.98 652.21 693.68 632.26C686.85 622.73 687.45 611.33 686.84 599.65C685.85 580.45 685.23 561.15 685.47 542.01C686.01 501.63 695.01 463.45 719.68 431.98Z" id="aRorqsIYZ"></path><path d="M798.17 373.92C855.37 332.27 917.33 297.2 985.67 287.12C1017.35 282.45 1052.06 280.15 1081.95 295.43C1104.7 307.06 1131.13 324.44 1143.65 348.88C1174.29 408.66 1106.15 456.25 1067.33 483.91C1046.43 498.8 1019.82 513.31 1004.07 535.05C994.93 547.65 990.27 564.33 982.89 578.18C960.53 620.14 923.72 653.98 877.87 660.03C856.67 662.83 835.31 659.37 814.27 656.62C792.73 653.8 770.93 652.28 749.52 648.35C732.44 645.22 712.3 639.91 706.01 620.19C698.08 595.34 703.95 561.74 707.58 536.84C716.48 475.88 749.55 409.32 798.17 373.92Z" id="aGdnNvux8"></path><path d="M815.97 379.61C840.48 361.46 868.94 348.94 896.26 336.56C927.23 322.54 959.59 311.65 992.63 306.25C1033.78 299.53 1100.42 293.46 1121.92 344.03C1143.26 394.22 1089.34 438.64 1057.45 463.96C1037.01 480.17 1015.13 495.06 995.6 512.79C985.01 522.4 976.85 533.5 967.89 544.78C943.12 576.01 907.8 600.74 871.81 613.94C836.93 626.73 793.77 632.4 756.94 628.17C741.05 626.35 729.7 620.22 724.89 602.78C718.23 578.55 723.89 550.72 729.26 527.05C742.24 469.73 769.74 413.82 815.97 379.61Z" id="bw4ssq2zX"></path><path d="M832.11 384.77C877.61 350.81 936.19 331.95 990.03 322.35C1018.65 317.26 1080.67 303.44 1095.26 342.98C1109.85 382.53 1067.68 421.49 1043.41 442.95C1013.95 468.94 982.18 494.04 950.46 517.37C922.9 537.65 893.49 558.38 863.63 574.04C846.79 582.93 829.25 590.18 811.22 595.72C797.87 599.79 780.88 605.85 766.88 602.82C731.57 595.18 744.63 535.74 750.8 511.61C763.7 461.15 791.52 415.05 832.11 384.77Z" id="at32wskHG"></path><path d="M981.72 337.77C1001.78 333.97 1058.02 320.28 1069.24 349.43C1080.11 377.7 1045.54 411.22 1029.36 427.1C979.22 476.31 917.27 512.8 858.57 548.95C840.25 560.23 807.2 584.72 784.47 573.42C759.79 561.14 771.53 516.29 777.39 496.5C805.69 401.06 895.37 354.13 981.72 337.77Z" id="d9t5Ogmgu"></path><path d="M968.42 354.25C984.54 351 1025.48 340.88 1037.7 360.49C1049 378.63 1022.03 404.92 1011.94 415.37C989.48 438.63 962.86 457.79 936.56 476.21C912.25 493.25 887.67 510.72 862.09 525.13C848.61 532.72 823.34 548.91 808.02 537.19C791.54 524.59 800.92 493.74 806.38 478.13C831 407.85 902.59 367.54 968.42 354.25Z" id="afr7liyp"></path><path d="M951.66 371.99C963.59 369.34 989.37 362.44 999.43 374.69C1008.69 385.98 993.76 402.53 987.14 410.17C957.77 444.05 914.77 474.31 875.38 492.89C865.47 497.56 847.66 506.73 837.47 497.3C827.02 487.62 834.02 468.14 838.33 457.6C857.09 411.7 907.34 381.9 951.66 371.99Z" id="fr5JHbn8y"></path><path d="M933.31 392.86C949.42 389.01 968.78 392.34 954.75 412.17C940.8 431.86 914.92 449.84 892.99 457.81C876.26 463.89 863.15 457.89 872.22 438.32C882.8 415.53 910.43 398.33 933.31 392.86Z" id="bUmBVDTKr"></path><path d="M3.03 458.47C12.03 420.79 57.32 417.64 84.49 400.57C106.08 387.01 118.33 362.99 130.01 339.93C140.5 319.24 149.92 297.92 160.97 277.57C168.13 264.41 180.41 238.57 195.93 238.1C210.78 237.65 224.4 257.79 233.03 269.69C244.27 285.21 254.25 301.75 265.17 317.51C283.58 344.1 305.67 363.78 330.96 382.41C359.74 403.6 388.99 424.07 418.72 443.82C440.61 458.4 462.65 472.87 483.69 488.89C496.89 498.95 526.02 517.81 526.15 536.34C526.21 545.19 518.44 554.98 513.21 562.05C504.34 574.02 494.24 584.96 484.11 595.66C465.24 615.6 445.56 634.64 426.1 653.9C400.85 678.91 376.72 703.5 354.52 731.89C331.56 761.27 309.63 791.62 287.25 821.56C272.09 841.84 256.95 864.61 235.09 877.06C207.7 892.61 185.23 876.21 157.53 876.02C133.71 875.86 135.47 816.31 132.44 799.75C129.4 782.99 122.71 767.39 120.11 750.59C116.88 729.61 116.84 708.16 116.04 686.96C115.07 661.04 114.69 636.36 89.01 626.47C74.39 620.85 58.57 619.67 43.44 616.31C33.64 614.12 15.15 610.39 14.94 596.16C14.26 551.14 -7.92 504.35 3.03 458.47Z" id="a1RXyajQxk"></path><path d="M23.35 463.15C35.27 429.85 72.54 425.54 97.64 408.05C118.36 393.62 127.58 370.02 137.94 346.83C146.25 328.23 154.31 309.44 163.74 291.44C170.69 278.16 181.31 255.76 195.76 253.01C208.75 250.54 222.69 270.32 229.98 280.39C240.62 295.08 249.72 311.03 259.12 326.65C275.64 354.09 292.55 378.76 316.72 398.91C341 419.16 367.57 434.29 394.41 450.04C415.41 462.37 436.31 475.05 456.27 489.28C471.13 499.87 492.5 513.43 499.3 532.32C504.69 547.27 477.38 572.07 469.33 580.82C452.75 598.82 435.19 615.71 417.59 632.5C396.14 652.96 374 670.86 355.06 694.2C321.18 735.93 292.85 787.89 249.25 818.91C222.96 837.61 193.69 842.4 164.45 839.6C152.87 838.49 150.08 820.85 148.62 810.56C146.2 793.47 145.89 776.09 144.03 758.93C142.28 742.86 138.4 727.6 135.27 711.85C132.1 695.89 131.22 679.54 128.88 663.47C127.44 653.49 126.01 641.88 119.7 633.86C113.16 625.56 102.38 622.08 92.96 619.43C75.27 614.52 28.42 614.79 26.65 588.16C24.15 550.41 9.4 502.11 23.35 463.15Z" id="eb6ez1I1f"></path><path d="M48.75 462.64C62.74 436.54 92.56 430.91 113.86 413.91C131.58 399.77 138.27 377.28 147.07 356.38C154.28 339.23 161.54 322.01 170.29 305.7C176.92 293.33 185.47 276.55 198.64 272.24C209.9 268.55 222.62 285.07 228.86 293.29C239.49 307.31 248.16 323.01 256.77 338.51C270.85 363.86 283.8 390.95 303.84 411.57C323.32 431.58 346.45 443.4 370.01 456.68C388.06 466.86 406 477.42 423.01 489.56C436.06 498.87 452.25 509.91 459.05 525.4C464.94 538.77 449.83 554.58 442.28 564.01C429.82 579.57 415.98 593.84 402.34 608.18C387.62 623.64 371.31 637.9 357.07 653.74C327.11 687.08 303.17 723.99 266.25 749.52C242.34 766.07 210.16 781.1 181.89 778.39C161.57 776.45 162.9 727.92 160.95 712.41C157.74 687.05 151.54 660.41 141.69 637.06C133.23 617.04 113.14 610.87 94.65 606.38C83.07 603.57 70.93 602.04 59.73 597.69C46.76 592.64 43.48 586.88 41.72 572.36C37.52 537.71 31.65 494.56 48.75 462.64Z" id="hxljgBtYq"></path><path d="M70.04 466.85C84.24 444.66 109.51 438.82 127.48 421.34C141.51 407.7 147.02 385.46 154.56 367.42C163.78 345.36 176.7 304.63 199.96 296.33C221.6 288.62 244.22 337.9 252.06 352.6C264.46 375.86 274.83 401.37 289.87 422.86C302.82 441.35 320.17 451.57 338.59 462.56C362.07 476.59 397.72 493.23 410.28 520.58C419.64 540.96 389.21 571.25 378.81 585.37C367.95 600.12 359.76 617.6 348.54 631.83C330.84 654.29 302.16 672.36 278.48 686.16C255.46 699.58 225.56 714.43 199.44 713.55C182.27 712.97 179.01 684.37 175.35 670.4C170.1 650.55 163.12 632.75 148.14 619.25C132.88 605.5 114.9 599.02 96 593.35C86.3 590.46 75.24 588.2 66.56 582.37C56.97 576.02 56.75 567.38 55.78 556.12C53.28 526.83 53.85 492.19 70.04 466.85Z" id="c15HpN0wc"></path><path d="M94.32 467.43C107.57 451.17 128.3 445.73 140.98 429.11C151.02 415.96 156.14 397.48 162.86 382.2C171.08 363.48 182.71 330.77 203.16 324.27C223.12 317.94 240.78 353.97 248.43 368.23C259.64 389.13 268.71 411.29 280.02 432.14C288.88 448.49 299.71 459.04 314.14 469.58C331.07 481.96 354.7 495.68 363.74 516.16C370.26 530.99 354.48 554.69 348.75 567.76C344.9 576.54 341.39 585.45 339.45 594.96C337.95 602.37 337.8 609.22 333.44 615.58C322.46 631.58 298.39 633.67 282.06 638.95C260.37 645.94 237.36 653.9 214.66 655.42C200.71 656.36 193.59 642.5 185.63 632.75C176.22 621.21 162.9 612.92 151.27 604.22C135.92 592.72 119.21 585.56 101.92 578.24C94.12 574.93 84.96 571.69 78.92 565.11C72.62 558.3 72.87 548.37 72.91 539.23C73.05 513.93 78.42 486.95 94.32 467.43Z" id="col1j15ch"></path><path d="M116.76 467.62C127.89 456.09 142.66 449.6 151.58 435.74C159.9 422.82 165.7 408.13 172.57 394.32C179.84 379.71 190.64 355.31 207.41 351.33C225.48 347.05 239.4 371.67 247.11 385.32C256.85 402.56 264.25 421.12 272.96 438.95C279.52 452.25 287.89 464.41 297.78 475.03C308.16 486.22 322.24 496.94 327.49 512.34C332.13 525.97 323.45 542.47 321.91 556.29C320.27 571.06 323.15 586.57 314.06 599.26C295.31 625.41 248.25 620.56 221.34 621.12C194.8 621.7 173.45 605.69 151.97 590.47C137.78 580.41 123.01 571.9 108.46 562.54C93.63 552.98 88.48 542.92 90.91 524.21C93.66 502.96 102.25 482.65 116.76 467.62Z" id="c1wrOL2BlN"></path><path d="M159.44 441.63C174.33 422.58 185.5 383.13 210.58 377.92C239.05 371.99 256.1 424.26 266 444.43C276.98 466.79 296.55 484.99 304.68 508.67C308.96 521.09 305.29 532.69 303.01 545.11C300.51 558.75 298.64 572.7 290.02 583.67C273.06 605.28 239.93 605.13 216.08 605.72C191.38 606.34 169.53 591.54 149.86 576.76C128.99 561.11 99.27 543.62 107.62 512.05C115.78 481.26 141.24 464.9 159.44 441.63Z" id="g2oysu25J"></path><path d="M165.43 447.1C178.5 433.06 192.56 404.81 212.5 402.79C235.92 400.42 250.12 430.59 259.34 449.09C268.41 467.26 281.49 486.46 286.51 506.41C291.75 527.19 277.8 555.18 264.49 569.89C249.65 586.28 225.38 592.34 204.54 591.69C182.73 591.02 162.72 577.47 146.2 563.41C128.54 548.39 110.59 529.16 121.28 503.7C130.46 481.76 149.77 463.93 165.43 447.1Z" id="b9sz5LhRzv"></path><path d="M171.95 452.12C182.77 441.5 198.74 423.42 214.36 422.98C231.53 422.49 246.09 437.66 252.92 453.21C259.65 468.55 266.74 487.77 267.75 504.6C269.94 541.24 225.39 582.28 191.94 578.94C160.22 575.77 116.45 535.92 133.95 499.57C142.72 481.32 157.93 465.89 171.95 452.12Z" id="b3zbXl0tUd"></path><path d="M214.39 439.09C245.63 438.17 253.48 475.88 249.4 503.21C245.27 531.11 209.24 571.48 180.52 566.03C152.49 560.7 131.32 525.75 145.66 497.56C157.77 473.79 187.17 439.9 214.39 439.09Z" id="a3wrmtuGB4"></path><path d="M212.96 448.2C240.14 447.31 239.63 479.15 233.46 498.96C227.05 519.54 198.83 554.68 175.03 549.13C151.89 543.72 148.21 512.79 158.03 493.71C168.28 473.81 190.15 448.95 212.96 448.2Z" id="dd4p941b0"></path><path d="M208.6 458.7C228.27 458.01 224.45 483.26 219.36 495.45C213.32 509.95 193.07 535.16 176.08 531.07C159.34 527.05 163.23 503.13 168.81 491.42C175.57 477.22 192.5 459.27 208.6 458.7Z" id="b6mkEQjVjY"></path><path d="M955.05 1378.8C887.22 1413.73 818.38 1447.72 747.11 1473.74C708.89 1487.69 659.37 1507.8 618.37 1496.87C603.38 1492.88 589.7 1480.8 576.26 1472.95C557.73 1462.12 538.92 1451.84 520.14 1441.52C482.48 1420.86 444.7 1400.4 407.68 1378.4C389.85 1367.81 372.56 1354.47 354 1345.43C343.16 1340.15 330.18 1342.62 318.59 1342.95C291.75 1343.73 264.93 1345.21 238.1 1346.46C205.29 1348 172.41 1349.63 139.56 1349.02C124.74 1348.75 88.46 1351.58 80.3 1337.82C75.91 1330.41 86.25 1317.04 91.05 1310.86C99.85 1299.49 109.97 1289.25 119.95 1279.11C143.04 1255.67 167.56 1233.34 188.09 1207.15C198.63 1193.69 212.45 1177.24 205.56 1158.86C198.62 1140.3 186.58 1124.22 179.24 1105.72C170.78 1084.43 167.27 1062.28 163.28 1039.7C160.33 1023.02 153.44 1008.24 146.97 992.85C139.82 975.85 132.41 958.71 127.45 940.78C124.16 928.93 118.87 907.63 130.35 900.13C146.66 889.47 177.25 898.1 195.84 901.24C221.54 905.57 247.05 911.1 272.68 915.85C291.28 919.31 309.95 923.1 328.87 923.5C359.36 924.15 389.95 921.9 420.36 919.8C476.67 915.92 532.58 910.65 589.08 910.65C638.59 910.65 752.98 972.42 779.76 983.29C833.2 1005 888.07 1025.58 938.65 1054.47C952.33 1062.29 973.39 1072.71 980.59 1088.81C985.03 1098.73 982.99 1104.46 993.47 1110.85C1007.76 1119.57 1026.07 1123 1041.89 1126.9C1067.37 1133.18 1093.04 1138.5 1118.64 1144.19C1170.41 1155.66 1221.82 1168.64 1273.38 1181.13C1288.96 1184.91 1307.82 1185.74 1322.68 1192.39C1332.26 1196.66 1331.26 1202.04 1323.85 1208.53C1310.85 1219.92 1292.62 1226.24 1277.26 1232.74C1254.75 1242.25 1231.88 1250.74 1208.99 1259.11C1186.11 1267.48 1163.1 1275.59 1140.2 1283.97C1125.08 1289.49 1107.83 1293.98 1094.24 1302.88C1050.7 1331.37 1001.47 1354.89 955.05 1378.8Z" id="a2lSpiNVSY"></path><path d="M911.93 1370.1C848.85 1398.52 784.34 1425.15 717.88 1442.92C678.85 1453.34 632.81 1464.85 592.93 1452.9C578.71 1448.63 568.08 1439.05 555.89 1430.58C541.99 1420.93 527.55 1412.08 513.12 1403.37C483.41 1385.44 453.38 1368.13 423.04 1351.43C406.97 1342.54 389.28 1330.65 371.13 1327.57C356.69 1325.11 340.3 1328.66 325.8 1329.7C299.69 1331.56 273.59 1333.47 247.47 1335.1C217.33 1336.97 187.1 1338.71 156.9 1338.41C140.06 1338.24 111.16 1341 99.26 1329.27C88.87 1319.03 126.69 1282 133.34 1274.96C154.11 1253 175.95 1232.08 195.28 1208.59C206.7 1194.74 220.61 1177.89 225.43 1159.53C229.53 1143.89 221.62 1126.06 216.95 1111.59C211.1 1093.48 206.39 1074.7 199.6 1056.96C193.55 1041.16 183.93 1027.08 175.48 1012.72C166.18 996.91 156.77 980.85 149.87 963.61C145.64 953 138.64 935.24 147.05 925.13C156.75 913.47 186.68 921.09 198.98 922.75C223.93 926.16 248.7 931.24 273.48 935.79C314.64 943.34 353.89 949.94 395.8 948.36C450.39 946.3 504.92 941.44 559.5 938.75C579.65 937.74 600.13 935.72 620.3 936.81C631.86 937.44 640.67 941.25 647.39 949.85C656.58 961.57 677.73 968.07 692.44 974.8C715.38 985.28 738.61 995.04 761.77 1004.92C812.62 1026.62 864.45 1047.54 912.67 1075.6C927.93 1084.48 945.4 1094.38 956.69 1109.04C962.98 1117.22 961.4 1125.1 965.24 1133.79C970.33 1145.23 987.06 1150.39 997.06 1154.13C1016.37 1161.35 1036.46 1166.19 1056.4 1170.73C1101.52 1180.99 1146.75 1187.74 1192.6 1192.71C1203.34 1193.86 1245.66 1197.86 1223.43 1217.14C1198.88 1238.44 1163.43 1248.88 1134.52 1260.89C1108.48 1271.68 1082.42 1281.72 1058.41 1296.61C1012.35 1325.16 961.22 1347.91 911.93 1370.1Z" id="a5y5sjYEgK"></path><path d="M856.87 1353.11C800.29 1374.87 742.29 1394.26 682.94 1405.12C645.66 1411.94 604.56 1417.18 567.53 1405.85C542.25 1398.11 522.69 1377.21 500.48 1362.82C478.27 1348.44 455.16 1334.94 431.36 1323.68C416.59 1316.7 400.7 1309.66 384.27 1310.59C344.31 1312.82 304.4 1318.15 264.39 1320.74C237.93 1322.47 211.41 1323.89 184.87 1323.47C168.86 1323.21 146.87 1324.25 132.7 1315.17C117.03 1305.12 200.44 1219.37 208.32 1209.71C228.09 1185.51 252.02 1153.39 248.2 1118.97C244.54 1086.07 228.7 1061.5 210.78 1035.72C200.62 1021.05 168.01 981.87 180.09 962.8C187 951.9 209.75 955.67 220.56 956.42C241.87 957.88 263.05 961.03 284.25 963.76C315.15 967.72 346.9 973.83 377.93 975.62C399.54 976.87 421.28 975.2 442.93 975.17C473.97 975.12 505.01 975.37 536.05 975.67C562.11 975.93 588.39 975.67 614.36 978.37C630.51 980.03 642.76 983.76 654.34 994.29C664.42 1003.45 679.62 1008.82 692.47 1014.65C713.68 1024.26 735.17 1033.18 756.6 1042.24C801.45 1061.21 846.81 1079.78 889.74 1103.49C909.34 1114.3 942.29 1129.45 946.89 1155.67C948.55 1165.13 949.77 1169.21 958.33 1174.59C970.48 1182.22 985.04 1185.66 998.68 1188.65C1030.47 1195.62 1063.17 1194.58 1094.91 1201.47C1107.83 1204.31 1124.71 1210.45 1109.95 1224.48C1092.74 1240.9 1067.67 1249.92 1047.05 1260.07C1036.75 1265.13 1026.15 1269.86 1016.37 1276.04C1008.86 1280.8 1002.43 1286.9 994.75 1291.33C951.46 1316.45 903.5 1335.19 856.87 1353.11Z" id="a66cMnfdL"></path><path d="M786.65 1332.09C739.27 1346.93 690.74 1359.21 641.58 1364.44C607.63 1368.06 571.45 1369.13 538.5 1358.05C517.66 1351.03 503.54 1336.29 485.6 1323.92C458.54 1305.23 429.26 1290.42 396.75 1294.02C360.3 1298.05 323.73 1301.08 287.04 1303.1C264.9 1304.31 242.69 1305.23 220.53 1304.38C206.52 1303.85 188.47 1302.95 176.28 1296.11C159.98 1286.94 221.23 1217.19 228.86 1207.02C247.8 1181.81 261.68 1155.35 269.79 1124.11C276.41 1098.62 262.9 1078.58 248.96 1059.52C240.29 1047.67 212.29 1017.89 221.05 1002.51C225.86 994.04 241.71 994.47 250.22 994.04C266.44 993.22 282.73 994.08 298.96 994.45C322.91 995.03 348.41 991.06 372.16 994.25C424.79 1001.32 477.3 1007.45 530.26 1012.29C559.45 1014.96 588.82 1017.39 617.76 1022.54C628.14 1024.38 638.87 1026.34 648.71 1030.52C655.05 1033.21 658.5 1037.78 663.84 1041.54C689.32 1059.41 722.57 1068.61 751.27 1080.06C789.41 1095.29 827.76 1110.28 864.89 1128.26C884.42 1137.73 911.69 1148.6 925.13 1167.91C929.19 1173.74 927.46 1178.41 930.02 1184.02C932.96 1190.49 941.88 1192.42 947.65 1194.22C960.73 1198.31 1015.51 1204.51 990.27 1228.53C978.22 1239.97 962.88 1247.31 949.3 1256.31C944.38 1259.57 939.59 1262.84 935.49 1267.24C928.64 1274.61 921.88 1278.81 912.75 1283.49C872.75 1303.89 829.31 1318.72 786.65 1332.09Z" id="beRs41MgP"></path><path d="M567.79 1325.79C539.16 1324.34 508.36 1319.48 483.54 1302.88C468.91 1293.07 457.21 1281.99 439.63 1278.45C426.95 1275.89 413.28 1278.8 400.52 1279.85C382.03 1281.37 363.53 1282.73 345.02 1283.83C322.06 1285.18 299.03 1286.22 276.04 1285.66C259.61 1285.26 236.92 1285.71 222.64 1276.19C205.6 1264.84 248.98 1211.56 255.08 1202.07C269.88 1179.06 280.25 1156.77 283.99 1129.04C285.1 1120.97 288.81 1112.68 288.33 1104.54C287.83 1096.23 283.08 1088.82 278.69 1082.29C272.96 1073.72 253.06 1053.39 258.76 1042.94C261.91 1037.17 273.73 1036.44 279.85 1035.22C291.34 1032.91 303 1031.67 314.56 1029.84C334.17 1026.71 353.64 1016.52 373.32 1016.81C426.25 1017.57 479.94 1035.28 531.81 1045C562.64 1050.8 593.68 1056.06 624.14 1063.92C633.78 1066.4 643.71 1068.98 652.87 1073.2C659.26 1076.14 663.37 1081.39 669.29 1084.68C692 1097.34 718.11 1105.02 742.49 1113.53C774.15 1124.61 805.91 1135.36 837.34 1147.15C857.05 1154.54 882.38 1161.05 899.36 1174.76C911.76 1184.77 903.28 1187.77 896.74 1197.09C893.4 1201.85 894.17 1206.53 892.72 1211.92C890.65 1219.6 884.79 1225.14 879.3 1230.11C871.72 1236.98 861.63 1242.64 855.43 1251.07C853.25 1254.03 853.35 1257.72 851.58 1260.3C846.44 1267.83 832.81 1271.55 825.38 1274.65C746.42 1307.66 653.88 1330.15 567.79 1325.79Z" id="aMrRMy7Hu"></path><path d="M538.29 1289.98C514.72 1288.07 491 1283.63 469.05 1273.88C459.06 1269.46 451.56 1264.53 440.61 1264.26C415.22 1263.65 389.74 1265.79 364.35 1266.3C346.18 1266.67 327.91 1266.81 309.78 1265.23C297.66 1264.18 281.27 1262.92 271.34 1254.9C256.91 1243.23 282.96 1203.53 288.26 1192.56C297.05 1174.37 305.76 1154.15 302.28 1133.1C301.21 1126.67 299.32 1120.98 299.07 1114.42C298.84 1108.78 299.5 1103.57 297.64 1098.18C295.35 1091.5 285.15 1081.12 288.66 1074.97C291.05 1070.77 298.13 1070.57 302.85 1069.23C310.49 1067.04 317.96 1064.18 325.17 1060.67C332.75 1056.95 339.22 1051.21 347.08 1048.14C359.84 1043.16 374.13 1042.69 387.54 1042.72C441.07 1042.81 495.27 1054.2 547.44 1066.11C574.61 1072.31 601.93 1078.92 628.33 1088.32C636.35 1091.18 645.43 1094.05 652.48 1099.32C656.88 1102.61 659.86 1106.72 664.86 1109.19C707.55 1130.29 756.9 1138.12 802.22 1153.35C814.01 1157.32 879.38 1177.36 845.2 1196.2C824.44 1207.66 802.5 1212.86 783.55 1228.53C777.78 1233.29 773.93 1237.23 771.68 1244.5C770.19 1249.34 773.77 1246.89 768.77 1251.94C762.72 1258.02 748.89 1260.47 741.43 1262.89C677.34 1283.64 606.03 1295.46 538.29 1289.98Z" id="gSsMj7NSM"></path><path d="M444.08 1253.35C424.87 1249.57 404.87 1250.47 385.42 1249.51C366.53 1248.59 332.93 1250.51 319.2 1234.83C309.25 1223.47 320.05 1199.33 323.79 1186.62C328.54 1170.43 332.7 1153.7 324.89 1137.98C320.31 1128.77 314.04 1120.01 309.13 1110.88C306.79 1106.53 301.95 1099.85 303.97 1095.72C307.3 1088.91 322.9 1086.05 330.46 1082.84C354.65 1072.57 380.26 1069.95 406.12 1070.03C453.89 1070.16 501.9 1077.21 548.75 1086.76C570.3 1091.16 592.16 1095.85 612.95 1103.49C624.71 1107.81 633.39 1116.15 644.62 1121.1C680.79 1137.03 719.65 1145.54 756.45 1160.11C767.1 1164.33 806.87 1178.37 786.83 1194.93C767.43 1210.96 739.14 1209.06 718.96 1224.13C716.68 1225.86 713.85 1227.93 712.53 1230.72C711.75 1232.39 713.13 1235.57 712.53 1236.51C706.34 1246.83 684.31 1248.47 674.79 1250.62C599.76 1267.56 520.3 1268.37 444.08 1253.35Z" id="a9kDlyM6y"></path><path d="M509.2 1246.89C487.81 1247.09 464.3 1248.56 443.37 1242.71C430.51 1239.11 418.09 1235.97 404.83 1233.7C390.57 1231.26 367.6 1229.48 358.92 1216.24C352.43 1206.36 356.87 1186.03 357.11 1174C357.36 1160.81 354.85 1151.03 346.22 1141.59C340.79 1135.65 315.9 1114.08 318.77 1107.86C321.51 1101.93 338.86 1101.02 346.36 1099.48C370.07 1094.6 394.1 1092.9 418.22 1093.16C455.57 1093.57 493.06 1097.68 529.83 1104.74C545.03 1107.67 560.74 1110.71 575.26 1116.57C585.04 1120.52 593.19 1127.53 602.91 1131.62C630.73 1143.34 660.14 1151.29 688.06 1163.23C697.02 1167.06 726.21 1177.28 719.21 1193.02C713.38 1206.16 693.53 1210.16 683.78 1218.96C667.19 1233.99 647.33 1236.3 626.18 1239.43C587.68 1245.12 548.34 1246.53 509.2 1246.89Z" id="b3yV5z7CuR"></path><path d="M509.16 1237.37C489.17 1237.43 468.07 1237.72 448.45 1232.87C438.59 1230.44 430.03 1224.75 420.7 1220.69C411.1 1216.52 397.84 1211.86 393.69 1202.29C389.79 1193.3 391.24 1180.18 387.82 1169.34C384.77 1159.72 378.39 1153.78 371.53 1147.27C367.15 1143.12 344.68 1125.13 347.28 1121.16C350.06 1116.9 363.56 1117.25 370.58 1116.66C389.93 1115.01 409.35 1114.49 428.75 1115.09C455.23 1115.96 481.91 1118.41 507.93 1123.94C526.39 1127.86 540.31 1137.2 557.52 1144.05C579.82 1152.94 602.92 1159.97 625 1169.7C636 1174.55 652.29 1180.79 657.92 1193.3C660.09 1198.1 662.19 1210.29 659.78 1215.09C656.88 1220.85 646.1 1223.3 641.01 1224.78C628.25 1228.47 614.91 1230.27 601.93 1231.87C571.39 1235.64 540.15 1237.29 509.16 1237.37Z" id="azGx2pxoj"></path></defs><g><g><g><use xlink:href="#aSrtra47p" opacity="1" fill="#f9f9f9" fill-opacity="0"></use><g><use xlink:href="#aSrtra47p" opacity="1" fill-opacity="0" stroke="#83ccff" stroke-width="5" stroke-opacity="0.46"></use></g></g><g><use xlink:href="#c2ZKURBu5H" opacity="1" fill="#f9f9f9" fill-opacity="0"></use><g><use xlink:href="#c2ZKURBu5H" opacity="1" fill-opacity="0" stroke="#83ccff" stroke-width="5" stroke-opacity="0.46"></use></g></g><g><use xlink:href="#c10pJzT8on" opacity="1" fill="#f9f9f9" fill-opacity="0"></use><g><use xlink:href="#c10pJzT8on" opacity="1" fill-opacity="0" stroke="#83ccff" stroke-width="5" stroke-opacity="0.46"></use></g></g><g><use xlink:href="#b1fpZMqWTO" opacity="1" fill="#f9f9f9" fill-opacity="0"></use><g><use xlink:href="#b1fpZMqWTO" opacity="1" fill-opacity="0" stroke="#83ccff" stroke-width="5" stroke-opacity="0.46"></use></g></g><g><use xlink:href="#dnKPE4Cuj" opacity="1" fill="#f9f9f9" fill-opacity="0"></use><g><use xlink:href="#dnKPE4Cuj" opacity="1" fill-opacity="0" stroke="#83ccff" stroke-width="5" stroke-opacity="0.46"></use></g></g><g><use xlink:href="#cfkGvjVkE" opacity="1" fill="#f9f9f9" fill-opacity="0"></use><g><use xlink:href="#cfkGvjVkE" opacity="1" fill-opacity="0" stroke="#83ccff" stroke-width="5" stroke-opacity="0.46"></use></g></g><g><use xlink:href="#arEDaHOu" opacity="1" fill="#f9f9f9" fill-opacity="0"></use><g><use xlink:href="#arEDaHOu" opacity="1" fill-opacity="0" stroke="#83ccff" stroke-width="5" stroke-opacity="0.46"></use></g></g><g><use xlink:href="#c3BNiMvvAF" opacity="1" fill="#f9f9f9" fill-opacity="0"></use><g><use xlink:href="#c3BNiMvvAF" opacity="1" fill-opacity="0" stroke="#83ccff" stroke-width="5" stroke-opacity="0.46"></use></g></g><g><use xlink:href="#c2n9NsyJ55" opacity="1" fill="#f9f9f9" fill-opacity="0"></use><g><use xlink:href="#c2n9NsyJ55" opacity="1" fill-opacity="0" stroke="#83ccff" stroke-width="5" stroke-opacity="0.46"></use></g></g><g><use xlink:href="#aRorqsIYZ" opacity="1" fill="#f9f9f9" fill-opacity="0"></use><g><use xlink:href="#aRorqsIYZ" opacity="1" fill-opacity="0" stroke="#83ccff" stroke-width="5" stroke-opacity="0.46"></use></g></g><g><use xlink:href="#aGdnNvux8" opacity="1" fill="#f9f9f9" fill-opacity="0"></use><g><use xlink:href="#aGdnNvux8" opacity="1" fill-opacity="0" stroke="#83ccff" stroke-width="5" stroke-opacity="0.46"></use></g></g><g><use xlink:href="#bw4ssq2zX" opacity="1" fill="#f9f9f9" fill-opacity="0"></use><g><use xlink:href="#bw4ssq2zX" opacity="1" fill-opacity="0" stroke="#83ccff" stroke-width="5" stroke-opacity="0.46"></use></g></g><g><use xlink:href="#at32wskHG" opacity="1" fill="#f9f9f9" fill-opacity="0"></use><g><use xlink:href="#at32wskHG" opacity="1" fill-opacity="0" stroke="#83ccff" stroke-width="5" stroke-opacity="0.46"></use></g></g><g><use xlink:href="#d9t5Ogmgu" opacity="1" fill="#f9f9f9" fill-opacity="0"></use><g><use xlink:href="#d9t5Ogmgu" opacity="1" fill-opacity="0" stroke="#83ccff" stroke-width="5" stroke-opacity="0.46"></use></g></g><g><use xlink:href="#afr7liyp" opacity="1" fill="#f9f9f9" fill-opacity="0"></use><g><use xlink:href="#afr7liyp" opacity="1" fill-opacity="0" stroke="#83ccff" stroke-width="5" stroke-opacity="0.46"></use></g></g><g><use xlink:href="#fr5JHbn8y" opacity="1" fill="#f9f9f9" fill-opacity="0"></use><g><use xlink:href="#fr5JHbn8y" opacity="1" fill-opacity="0" stroke="#83ccff" stroke-width="5" stroke-opacity="0.46"></use></g></g><g><use xlink:href="#bUmBVDTKr" opacity="1" fill="#f9f9f9" fill-opacity="0"></use><g><use xlink:href="#bUmBVDTKr" opacity="1" fill-opacity="0" stroke="#83ccff" stroke-width="5" stroke-opacity="0.46"></use></g></g><g><use xlink:href="#a1RXyajQxk" opacity="1" fill="#f9f9f9" fill-opacity="0"></use><g><use xlink:href="#a1RXyajQxk" opacity="1" fill-opacity="0" stroke="#83ccff" stroke-width="5" stroke-opacity="0.46"></use></g></g><g><use xlink:href="#eb6ez1I1f" opacity="1" fill="#f9f9f9" fill-opacity="0"></use><g><use xlink:href="#eb6ez1I1f" opacity="1" fill-opacity="0" stroke="#83ccff" stroke-width="5" stroke-opacity="0.46"></use></g></g><g><use xlink:href="#hxljgBtYq" opacity="1" fill="#f9f9f9" fill-opacity="0"></use><g><use xlink:href="#hxljgBtYq" opacity="1" fill-opacity="0" stroke="#83ccff" stroke-width="5" stroke-opacity="0.46"></use></g></g><g><use xlink:href="#c15HpN0wc" opacity="1" fill="#f9f9f9" fill-opacity="0"></use><g><use xlink:href="#c15HpN0wc" opacity="1" fill-opacity="0" stroke="#83ccff" stroke-width="5" stroke-opacity="0.46"></use></g></g><g><use xlink:href="#col1j15ch" opacity="1" fill="#f9f9f9" fill-opacity="0"></use><g><use xlink:href="#col1j15ch" opacity="1" fill-opacity="0" stroke="#83ccff" stroke-width="5" stroke-opacity="0.46"></use></g></g><g><use xlink:href="#c1wrOL2BlN" opacity="1" fill="#f9f9f9" fill-opacity="0"></use><g><use xlink:href="#c1wrOL2BlN" opacity="1" fill-opacity="0" stroke="#83ccff" stroke-width="5" stroke-opacity="0.46"></use></g></g><g><use xlink:href="#g2oysu25J" opacity="1" fill="#f9f9f9" fill-opacity="0"></use><g><use xlink:href="#g2oysu25J" opacity="1" fill-opacity="0" stroke="#83ccff" stroke-width="5" stroke-opacity="0.46"></use></g></g><g><use xlink:href="#b9sz5LhRzv" opacity="1" fill="#f9f9f9" fill-opacity="0"></use><g><use xlink:href="#b9sz5LhRzv" opacity="1" fill-opacity="0" stroke="#83ccff" stroke-width="5" stroke-opacity="0.46"></use></g></g><g><use xlink:href="#b3zbXl0tUd" opacity="1" fill="#f9f9f9" fill-opacity="0"></use><g><use xlink:href="#b3zbXl0tUd" opacity="1" fill-opacity="0" stroke="#83ccff" stroke-width="5" stroke-opacity="0.46"></use></g></g><g><use xlink:href="#a3wrmtuGB4" opacity="1" fill="#f9f9f9" fill-opacity="0"></use><g><use xlink:href="#a3wrmtuGB4" opacity="1" fill-opacity="0" stroke="#83ccff" stroke-width="5" stroke-opacity="0.46"></use></g></g><g><use xlink:href="#dd4p941b0" opacity="1" fill="#f9f9f9" fill-opacity="0"></use><g><use xlink:href="#dd4p941b0" opacity="1" fill-opacity="0" stroke="#83ccff" stroke-width="5" stroke-opacity="0.46"></use></g></g><g><use xlink:href="#b6mkEQjVjY" opacity="1" fill="#f9f9f9" fill-opacity="0"></use><g><use xlink:href="#b6mkEQjVjY" opacity="1" fill-opacity="0" stroke="#83ccff" stroke-width="5" stroke-opacity="0.46"></use></g></g><g><use xlink:href="#a2lSpiNVSY" opacity="1" fill="#f9f9f9" fill-opacity="0"></use><g><use xlink:href="#a2lSpiNVSY" opacity="1" fill-opacity="0" stroke="#83ccff" stroke-width="5" stroke-opacity="0.46"></use></g></g><g><use xlink:href="#a5y5sjYEgK" opacity="1" fill="#f9f9f9" fill-opacity="0"></use><g><use xlink:href="#a5y5sjYEgK" opacity="1" fill-opacity="0" stroke="#83ccff" stroke-width="5" stroke-opacity="0.46"></use></g></g><g><use xlink:href="#a66cMnfdL" opacity="1" fill="#f9f9f9" fill-opacity="0"></use><g><use xlink:href="#a66cMnfdL" opacity="1" fill-opacity="0" stroke="#83ccff" stroke-width="5" stroke-opacity="0.46"></use></g></g><g><use xlink:href="#beRs41MgP" opacity="1" fill="#f9f9f9" fill-opacity="0"></use><g><use xlink:href="#beRs41MgP" opacity="1" fill-opacity="0" stroke="#83ccff" stroke-width="5" stroke-opacity="0.46"></use></g></g><g><use xlink:href="#aMrRMy7Hu" opacity="1" fill="#f9f9f9" fill-opacity="0"></use><g><use xlink:href="#aMrRMy7Hu" opacity="1" fill-opacity="0" stroke="#83ccff" stroke-width="5" stroke-opacity="0.46"></use></g></g><g><use xlink:href="#gSsMj7NSM" opacity="1" fill="#f9f9f9" fill-opacity="0"></use><g><use xlink:href="#gSsMj7NSM" opacity="1" fill-opacity="0" stroke="#83ccff" stroke-width="5" stroke-opacity="0.46"></use></g></g><g><use xlink:href="#a9kDlyM6y" opacity="1" fill="#f9f9f9" fill-opacity="0"></use><g><use xlink:href="#a9kDlyM6y" opacity="1" fill-opacity="0" stroke="#83ccff" stroke-width="5" stroke-opacity="0.46"></use></g></g><g><use xlink:href="#b3yV5z7CuR" opacity="1" fill="#f9f9f9" fill-opacity="0"></use><g><use xlink:href="#b3yV5z7CuR" opacity="1" fill-opacity="0" stroke="#83ccff" stroke-width="5" stroke-opacity="0.46"></use></g></g><g><use xlink:href="#azGx2pxoj" opacity="1" fill="#f9f9f9" fill-opacity="0"></use><g><use xlink:href="#azGx2pxoj" opacity="1" fill-opacity="0" stroke="#83ccff" stroke-width="5" stroke-opacity="0.46"></use></g></g></g></g></svg>